<?xml version="1.0" encoding="UTF-8" standalone="no"?>
<svg width="1126px" height="189px" viewBox="0 0 1126 189" version="1.1" xmlns="http://www.w3.org/2000/svg" xmlns:xlink="http://www.w3.org/1999/xlink">
    <!-- Generator: Sketch 3.8.2 (29753) - http://www.bohemiancoding.com/sketch -->
    <title>tuva_connect_white</title>
    <desc>Created with Sketch.</desc>
    <defs>
        <polygon id="path-1" points="3.39216211e-05 135.411502 106.330529 135.411502 106.330529 0.0300791773 3.39216211e-05 0.0300791773"></polygon>
    </defs>
    <g id="tuva_connect" stroke="none" stroke-width="1" fill="none" fill-rule="evenodd">
        <g id="tuva_connect_white" transform="translate(2.000000, -14.000000)">
            <circle id="Oval-1" stroke="#FFFFFF" stroke-width="4" cx="92.5" cy="108.5" r="92.5"></circle>
            <g id="Tuva-Logotyp-Svart-001-Copy" transform="translate(39.000000, 43.000000)">
                <path d="M33.8129042,74.1830981 C38.8747639,76.7089212 42.8669029,80.7358682 45.1453222,85.6024365 C49.0557095,93.9553893 53.2401693,109.474088 53.2401693,137.836134 C53.2401693,137.836134 52.185777,135.966923 52.1397917,134.607429 C52.0980983,133.382605 51.9372519,103.568526 41.4423798,84.626264 C39.4607191,81.0497858 36.3159363,78.1348103 32.4928189,76.2014619 C25.7448307,72.7891838 14.8767622,66.6697666 11.9318623,57.6707343 C10.0689458,51.978087 11.3318049,53.2059203 11.3318049,53.2059203 C11.3318049,53.2059203 12.5821969,63.5892744 33.8129042,74.1830981 Z" id="Fill-1" fill="#FFFFFF"></path>
                <path d="M22.9650692,80.3593176 C23.6340023,81.7874638 24.1308482,81.7472131 27.1560691,83.3982426 C27.3387841,83.5139162 25.2763936,80.0920457 25.2048609,77.0871645 C25.2359265,77.0217102 27.752652,83.4360481 31.3010838,85.4852582 C33.4405253,86.720615 34.1229474,87.0800496 34.1229474,87.0800496 C34.1229474,87.0800496 31.0313032,85.1004318 31.1817263,79.9607609 C31.2066606,79.7975012 33.4914157,85.1664504 38.2904437,88.4465032 C39.9863824,89.7211701 41.0620301,90.5572178 47.1586618,92.9404707 C49.2367895,93.7528194 47.2075084,94.9819693 47.2075084,94.9819693 C47.2075084,94.9819693 44.0046819,93.9807811 40.3671408,92.1397835 C37.3672629,90.6215436 35.6247258,88.7327719 34.5488737,88.7658752 C31.9661337,88.845248 25.5974733,85.8337838 22.3298586,83.0538549 C20.815,81.7648933 22.9650692,80.3593176 22.9650692,80.3593176" id="Fill-2" fill="#FFFFFF"></path>
                <path d="M50.9758521,110.562173 C47.9759742,109.043933 46.2336415,107.154973 45.157585,107.188076 C42.5750494,107.267637 36.6731911,104.502191 33.4055764,101.722262 C31.8907178,100.433301 33.1981315,98.4139965 33.1981315,98.4139965 C33.8670647,99.8421426 34.7397638,100.169602 37.7647804,101.820444 C37.9476998,101.936306 35.8851049,98.514247 35.8135722,95.5093658 C35.8446378,95.4439114 38.3615677,101.858437 41.9099994,103.907459 C44.0494409,105.143004 44.7316587,105.502251 44.7316587,105.502251 C44.7316587,105.502251 41.6400145,103.522821 41.790642,98.3829621 C41.8153719,98.2197024 44.100127,103.58884 48.8991551,106.868892 C49.532935,107.345317 50.0802625,107.760426 50.8354436,108.218042 L50.9758521,110.562173" id="Fill-3" fill="#FFFFFF"></path>
                <path d="M43.3629312,115.723662 C44.0588424,116.450243 45.7341387,117.088987 45.7341387,117.088987 C45.7341387,117.088987 42.6424945,115.109369 42.7929176,109.969698 C42.8178519,109.806438 45.102607,115.175576 49.9014307,118.45544 C50.535415,118.931865 51.0827425,119.347162 51.8379236,119.804778 C51.8379236,119.804778 52.5679661,122.256307 51.9871204,122.013674 C46.7490858,119.82622 43.4544931,117.443155 43.4544931,117.443155 C43.4544931,117.443155 42.9815596,115.325481 43.3629312,115.723662" id="Fill-4" fill="#FFFFFF"></path>
                <path d="M94.9956581,53.2059203 C94.9956581,53.2059203 93.7452661,63.5892744 72.5145589,74.1830981 C67.4526991,76.7089212 63.4605602,80.7358682 61.1821408,85.6024365 C57.2717535,93.9553893 53.0872937,109.474088 53.0872937,137.836134 C53.0872937,137.836134 54.141686,135.966923 54.1878757,134.607429 C54.2293647,133.382605 54.3902111,103.568526 64.8850832,84.626264 C66.866744,81.0497858 70.0115268,78.1348103 73.8346441,76.2014619 C80.5826323,72.7891838 91.4507008,66.6697666 94.3956008,57.6707343 C96.2585172,51.978087 94.9956581,53.2059203 94.9956581,53.2059203" id="Fill-5" fill="#FFFFFF"></path>
                <path d="M83.3462479,80.3593176 C82.6773148,81.7874638 82.213374,81.8036393 79.1883574,83.4544807 C79.005438,83.5703424 81.0680329,80.1482838 81.1395656,77.1434026 C81.1085,77.0779483 78.5915701,83.4924743 75.0431384,85.5414963 C72.9036969,86.7770411 72.2212747,87.1362877 72.2212747,87.1362877 C72.2212747,87.1362877 75.3131233,85.156858 75.1624958,80.0169989 C75.1377659,79.8537392 72.8530108,85.2228766 68.0539828,88.5029293 C66.3580441,89.7775963 65.282192,90.6134558 59.1857647,92.9967088 C57.107637,93.8090574 59.1369181,95.0382073 59.1369181,95.0382073 C59.1369181,95.0382073 62.3397446,94.0370191 65.9772857,92.1962097 C68.9771636,90.6779698 70.7194963,88.78901 71.7955528,88.8221133 C74.3780884,88.9016742 80.7469532,85.89021 84.0143635,83.110093 C85.5294265,81.8211314 83.3462479,80.3593176 83.3462479,80.3593176" id="Fill-6" fill="#FFFFFF"></path>
                <path d="M55.36837,110.562173 C58.3684523,109.043933 60.110785,107.154973 61.1866371,107.188076 C63.7693771,107.267637 69.6712354,104.502191 72.9386457,101.722262 C74.4537087,100.433301 73.1323972,98.4139965 73.1323972,98.4139965 C72.4634641,99.8421426 71.6046627,100.169602 68.5794417,101.820444 C68.3967267,101.936306 70.4591172,98.514247 70.5306499,95.5093658 C70.4995843,95.4439114 67.9828588,101.858437 64.4344271,103.907459 C62.2949856,105.143004 61.6125634,105.502251 61.6125634,105.502251 C61.6125634,105.502251 64.7042076,103.522821 64.5537845,98.3829621 C64.5288503,98.2197024 62.2440951,103.58884 57.4452714,106.868892 C56.8112872,107.345317 56.2639597,107.760426 55.5087785,108.218042 L55.36837,110.562173" id="Fill-7" fill="#FFFFFF"></path>
                <g id="Group-11" transform="translate(0.000000, 6.959227)">
                    <mask id="mask-2" fill="white">
                        <use xlink:href="#path-1"></use>
                    </mask>
                    <g id="Clip-9"></g>
                    <path d="M62.9530866,108.791896 C62.2571754,109.518477 60.6100834,110.186187 60.6100834,110.186187 C60.6100834,110.186187 63.701932,108.206569 63.5513045,103.06671 C63.5265746,102.90345 61.2418195,108.272587 56.4427915,111.55264 C55.8088072,112.029065 55.261684,112.444173 54.5065029,112.90179 C54.5065029,112.90179 53.7764604,115.353318 54.3571017,115.110874 C59.5953407,112.923232 62.8899334,110.540167 62.8899334,110.540167 C62.8899334,110.540167 63.3344582,108.393715 62.9530866,108.791896" id="Fill-8" fill="#FFFFFF" mask="url(#mask-2)"></path>
                    <path d="M53.1653665,128.965377 C53.1653665,127.266009 66.0414607,102.453922 68.8112077,98.2906113 C71.581159,94.127301 86.191002,71.1375901 91.7803645,54.1187075 C93.5494709,48.7322661 95.2866941,42.2039474 95.9431601,36.5536196 C96.700385,30.0354576 95.3191904,25.5424304 94.9909574,24.6196746 C94.9643881,24.5448159 94.8783444,24.5312736 94.7970015,24.5551607 C94.1006816,24.7605519 91.4022629,25.1521495 91.0922197,25.0095794 C91.0922197,25.0095794 93.7577333,23.887263 94.666812,23.0433158 C103.559964,15.7462846 103.994883,5.98098501 104.101978,3.99440796 C104.209277,2.00801899 102.967878,2.34770449 102.42566,3.12958299 C92.4609472,14.2720571 83.1943941,16.1621454 75.6852978,17.4050256 C63.1204732,19.485082 57.4796072,23.2818103 57.4366875,23.2927194 C57.7510227,23.1529706 59.2397209,19.9741088 73.499871,15.7656576 C74.1489794,15.5739967 75.2182913,15.2894208 75.88375,15.1526814 C84.3656914,13.4089249 96.1093204,8.49364198 100.924903,1.87598178 C101.316085,1.33824046 101.842361,0.90018536 102.437718,0.555797689 C103.110126,0.167021437 103.652957,-0.0385578769 104.375642,0.0507835452 C106.434353,0.305641707 106.452952,3.87422024 106.245098,6.86932088 C106.039288,9.83714888 104.018182,17.8287861 98.6170532,22.7991786 C98.0973169,23.1616226 100.253313,27.6935838 99.2818988,36.6343091 C98.9142206,40.0168693 98.2826888,44.6643161 97.1357127,49.0713874 C93.3379384,63.6654497 77.4460247,88.6199196 70.7270584,99.3649654 C63.4025165,111.078472 53.1653665,131.004619 53.1653665,135.422787 M53.1653665,135.422787 C53.1653665,131.004619 42.9280123,111.078472 35.6034704,99.3649654 C28.8847084,88.6199196 12.9927947,63.6654497 9.19481598,49.0713874 C8.04804427,44.6643161 7.41630815,40.0168693 7.04862997,36.6343091 C6.07721561,27.6935838 8.23321183,23.1616226 7.71347551,22.7991786 C2.31234631,17.8287861 0.291240365,9.83714888 0.085430507,6.86932088 C-0.122218764,3.87422024 -0.103824635,0.305641707 1.95509146,0.0507835452 C2.67777632,-0.0385578769 3.22060749,0.167021437 3.89281069,0.555797689 C4.48816731,0.90018536 5.01444375,1.33824046 5.40562555,1.87598178 C10.2214127,8.49364198 21.9648374,13.4089249 30.4469831,15.1526814 C31.1122374,15.2894208 32.1815494,15.5739967 32.8308621,15.7656576 C47.0908079,19.9741088 48.579506,23.1529706 48.8938412,23.2927194 C48.8511259,23.2818103 43.2100556,19.485082 30.6452309,17.4050256 C23.1361346,16.1621454 13.8695815,14.2720571 3.90486906,3.12958299 C3.36265103,2.34770449 2.12145613,2.00801899 2.22855083,3.99440796 C2.33564554,5.98098501 2.77056448,15.7462846 11.6639211,23.0433158 C12.5727955,23.887263 15.238309,25.0095794 15.238309,25.0095794 C14.9282658,25.1521495 12.2298471,24.7605519 11.5335272,24.5551607 C11.4521843,24.5312736 11.3661406,24.5448159 11.3395713,24.6196746 C11.0113383,25.5424304 9.63014368,30.0354576 10.3873686,36.5536196 C11.0438346,42.2039474 12.7810579,48.7322661 14.5501642,54.1187075 C20.1395267,71.1375901 34.7495741,94.127301 37.519321,98.2906113 C40.289068,102.453922 53.1653665,127.266009 53.1653665,128.965377" id="Fill-10" fill="#FFFFFF" mask="url(#mask-2)"></path>
                </g>
                <path d="M34.0405826,50.7844856 C30.6865155,50.7844856 27.9678633,48.2825496 27.9678633,45.1960386 C27.9678633,42.1095276 30.6865155,39.6074035 34.0405826,39.6074035 C37.3946497,39.6074035 40.1133019,42.1095276 40.1133019,45.1960386 C40.1133019,48.2825496 37.3946497,50.7844856 34.0405826,50.7844856 L34.0405826,50.7844856 Z M33.8237363,29.7713831 C24.4128915,29.7873706 17.2520573,36.4768801 17.2763784,45.2289539 C17.2994733,53.6460443 24.6722487,60.530036 33.7595612,60.6201298 C42.9271947,60.7107878 50.8540421,53.4368914 50.8047867,44.978986 C50.7551226,36.4785729 43.2478657,29.7550196 33.8237363,29.7713831 L33.8237363,29.7713831 Z" id="Fill-12" fill="#FFFFFF"></path>
                <path d="M71.8777133,50.7844856 C68.5240549,50.7844856 65.8054028,48.2825496 65.8054028,45.1960386 C65.8054028,42.1095276 68.5240549,39.6074035 71.8777133,39.6074035 C75.2317804,39.6074035 77.9506369,42.1095276 77.9506369,45.1960386 C77.9506369,48.2825496 75.2317804,50.7844856 71.8777133,50.7844856 L71.8777133,50.7844856 Z M71.6610713,29.7713831 C62.2504309,29.7873706 55.089188,36.4768801 55.1135091,45.2289539 C55.1370127,53.6460443 62.5095837,60.530036 71.5966919,60.6201298 C80.7645298,60.7107878 88.6911728,53.4368914 88.6419174,44.978986 C88.5924577,36.4785729 81.0852008,29.7550196 71.6610713,29.7713831 L71.6610713,29.7713831 Z" id="Fill-13" fill="#FFFFFF"></path>
                <path d="M46.7960931,53.6565772 L52.4492218,66.5048142 L53.0331332,66.4903314 L58.9936483,53.069369 L58.9936483,47.1286346 L56.6291853,48.3720791 C56.6291853,48.3720791 53.2140088,51.1006602 49.1231547,48.3720791 L47.0589247,47.2668787 L46.7960931,53.6565772" id="Fill-14" fill="#FFFFFF"></path>
                <path d="M53.0515273,0.123949468 C69.0642292,0.123949468 83.1457519,7.34160785 91.2732997,18.2561202 C89.943813,18.5156806 88.7385888,19.0216352 87.7387657,19.7081534 C80.2437716,9.95470338 67.5068596,3.53528709 53.0515273,3.53528709 C38.2671445,3.53528709 24.0033155,9.57946941 16.5837373,19.7087177 C15.7049067,18.8493473 14.5450548,18.2416375 13.2400936,18.0132997 C21.3159334,6.86029269 36.8307675,0.123949468 53.0515273,0.123949468" id="Fill-15" fill="#FFFFFF"></path>
            </g>
            <text id="Tuva-Connect" font-family="SourceSansPro-Semibold, Source Sans Pro" font-size="160" font-weight="500" letter-spacing="-5.21000004" fill="#FFFFFF">
                <tspan x="205.335" y="157">Tuv</tspan>
                <tspan x="438.185" y="157">a Connect</tspan>
            </text>
        </g>
    </g>
</svg>