<?xml version="1.0" encoding="UTF-8" standalone="no"?>
<svg width="378px" height="378px" viewBox="0 0 378 378" version="1.1" xmlns="http://www.w3.org/2000/svg" xmlns:xlink="http://www.w3.org/1999/xlink">
    <!-- Generator: Sketch 3.8.2 (29753) - http://www.bohemiancoding.com/sketch -->
    <title>tuva_owl_white</title>
    <desc>Created with Sketch.</desc>
    <defs>
        <polygon id="path-1" points="6.78432422e-05 270.823004 212.661057 270.823004 212.661057 0.0601583545 6.78432422e-05 0.0601583545"></polygon>
    </defs>
    <g id="Page-1" stroke="none" stroke-width="1" fill="none" fill-rule="evenodd">
        <g id="tuva_owl_white" transform="translate(4.000000, 4.000000)">
            <circle id="Oval-1" stroke="#FFFFFF" stroke-width="8" cx="185" cy="185" r="185"></circle>
            <g id="Tuva-Logotyp-Svart-001-Copy" transform="translate(78.000000, 54.000000)">
                <path d="M67.6258083,148.366196 C77.7495278,153.417842 85.7338057,161.471736 90.2906445,171.204873 C98.1114191,187.910779 106.480339,218.948177 106.480339,275.672268 C106.480339,275.672268 104.371554,271.933847 104.279583,269.214858 C104.196197,266.76521 103.874504,207.137053 82.8847596,169.252528 C78.9214381,162.099572 72.6318725,156.269621 64.9856378,152.402924 C51.4896615,145.578368 29.7535244,133.339533 23.8637245,115.341469 C20.1378917,103.956174 22.6636099,106.411841 22.6636099,106.411841 C22.6636099,106.411841 25.1643938,127.178549 67.6258083,148.366196 Z" id="Fill-1" fill="#FFFFFF"></path>
                <path d="M45.9301384,160.718635 C47.2680046,163.574928 48.2616963,163.494426 54.3121383,166.796485 C54.6775683,167.027832 50.5527872,160.184091 50.4097217,154.174329 C50.471853,154.04342 55.505304,166.872096 62.6021675,170.970516 C66.8810505,173.44123 68.2458948,174.160099 68.2458948,174.160099 C68.2458948,174.160099 62.0626064,170.200864 62.3634526,159.921522 C62.4133211,159.595002 66.9828313,170.332901 76.5808875,176.893006 C79.9727648,179.44234 82.1240603,181.114436 94.3173235,185.880941 C98.473579,187.505639 94.4150168,189.963939 94.4150168,189.963939 C94.4150168,189.963939 88.0093638,187.961562 80.7342817,184.279567 C74.7345258,181.243087 71.2494516,177.465544 69.0977473,177.53175 C63.9322674,177.690496 51.1949466,171.667568 44.6597172,166.10771 C41.6299999,163.529787 45.9301384,160.718635 45.9301384,160.718635" id="Fill-2" fill="#FFFFFF"></path>
                <path d="M101.951704,221.124346 C95.9519484,218.087866 92.467283,214.309946 90.31517,214.376153 C85.1500987,214.535275 73.3463822,209.004382 66.8111528,203.444525 C63.7814355,200.866601 66.396263,196.827993 66.396263,196.827993 C67.7341293,199.684285 69.4795277,200.339205 75.5295609,203.640888 C75.8953996,203.872611 71.7702098,197.028494 71.6271444,191.018732 C71.6892756,190.887823 76.7231354,203.716875 83.8199989,207.814919 C88.0988819,210.286009 89.4633174,211.004502 89.4633174,211.004502 C89.4633174,211.004502 83.280029,207.045642 83.581284,196.765924 C83.6307437,196.439405 88.200254,207.177679 97.7983101,213.737785 C99.0658699,214.690635 100.160525,215.520852 101.670887,216.436084 L101.951704,221.124346" id="Fill-3" fill="#FFFFFF"></path>
                <path d="M86.7258624,231.447324 C88.1176848,232.900486 91.4682774,234.177974 91.4682774,234.177974 C91.4682774,234.177974 85.284989,230.218738 85.5858352,219.939396 C85.6357037,219.612877 90.205214,230.351152 99.8028613,236.910881 C101.07083,237.863731 102.165485,238.694324 103.675847,239.609556 C103.675847,239.609556 105.135932,244.512613 103.974241,244.027348 C93.4981717,239.65244 86.9089862,234.88631 86.9089862,234.88631 C86.9089862,234.88631 85.9631192,230.650963 86.7258624,231.447324" id="Fill-4" fill="#FFFFFF"></path>
                <path d="M189.991316,106.411841 C189.991316,106.411841 187.490532,127.178549 145.029118,148.366196 C134.905398,153.417842 126.92112,161.471736 122.364282,171.204873 C114.543507,187.910779 106.174587,218.948177 106.174587,275.672268 C106.174587,275.672268 108.283372,271.933847 108.375751,269.214858 C108.458729,266.76521 108.780422,207.137053 129.770166,169.252528 C133.733488,162.099572 140.023054,156.269621 147.669288,152.402924 C161.165265,145.578368 182.901402,133.339533 188.791202,115.341469 C192.517034,103.956174 189.991316,106.411841 189.991316,106.411841" id="Fill-5" fill="#FFFFFF"></path>
                <path d="M166.692496,160.718635 C165.35463,163.574928 164.426748,163.607279 158.376715,166.908961 C158.010876,167.140685 162.136066,160.296568 162.279131,154.286805 C162.217,154.155897 157.18314,166.984949 150.086277,171.082993 C145.807394,173.554082 144.442549,174.272575 144.442549,174.272575 C144.442549,174.272575 150.626247,170.313716 150.324992,160.033998 C150.275532,159.707478 145.706022,170.445753 136.107966,177.005859 C132.716088,179.555193 130.564384,181.226912 118.371529,185.993418 C114.215274,187.618115 118.273836,190.076415 118.273836,190.076415 C118.273836,190.076415 124.679489,188.074038 131.954571,184.392419 C137.954327,181.35594 141.438993,177.57802 143.591106,177.644227 C148.756177,177.803348 161.493906,171.78042 168.028727,166.220186 C171.058853,163.642263 166.692496,160.718635 166.692496,160.718635" id="Fill-6" fill="#FFFFFF"></path>
                <path d="M110.73674,221.124346 C116.736905,218.087866 120.22157,214.309946 122.373274,214.376153 C127.538754,214.535275 139.342471,209.004382 145.877291,203.444525 C148.907417,200.866601 146.264794,196.827993 146.264794,196.827993 C144.926928,199.684285 143.209325,200.339205 137.158883,203.640888 C136.793453,203.872611 140.918234,197.028494 141.0613,191.018732 C140.999169,190.887823 135.965718,203.716875 128.868854,207.814919 C124.589971,210.286009 123.225127,211.004502 123.225127,211.004502 C123.225127,211.004502 129.408415,207.045642 129.107569,196.765924 C129.057701,196.439405 124.48819,207.177679 114.890543,213.737785 C113.622574,214.690635 112.527919,215.520852 111.017557,216.436084 L110.73674,221.124346" id="Fill-7" fill="#FFFFFF"></path>
                <g id="Group-11" transform="translate(0.000000, 13.918453)">
                    <mask id="mask-2" fill="white">
                        <use xlink:href="#path-1"></use>
                    </mask>
                    <g id="Clip-9"></g>
                    <path d="M125.906173,217.583792 C124.514351,219.036954 121.220167,220.372373 121.220167,220.372373 C121.220167,220.372373 127.403864,216.413137 127.102609,206.133419 C127.053149,205.8069 122.483639,216.545175 112.885583,223.10528 C111.617614,224.05813 110.523368,224.888347 109.013006,225.803579 C109.013006,225.803579 107.552921,230.706636 108.714203,230.221748 C119.190681,225.846463 125.779867,221.080333 125.779867,221.080333 C125.779867,221.080333 126.668916,216.787431 125.906173,217.583792" id="Fill-8" fill="#FFFFFF" mask="url(#mask-2)"></path>
                    <path d="M106.330733,257.930755 C106.330733,254.532019 132.082921,204.907843 137.622415,196.581223 C143.162318,188.254602 172.382004,142.27518 183.560729,108.237415 C187.098942,97.4645323 190.573388,84.4078947 191.88632,73.1072393 C193.40077,60.0709152 190.638381,51.0848609 189.981915,49.2393492 C189.928776,49.0896318 189.756689,49.0625473 189.594003,49.1103214 C188.201363,49.5211039 182.804526,50.304299 182.184439,50.0191588 C182.184439,50.0191588 187.515467,47.7745261 189.333624,46.0866315 C207.119928,31.4925692 207.989766,11.96197 208.203956,7.98881592 C208.418554,4.01603799 205.935755,4.69540897 204.851319,6.25916599 C184.921894,28.5441141 166.388788,32.3242908 151.370596,34.8100513 C126.240946,38.9701641 114.959214,46.5636207 114.873375,46.5854388 C115.502045,46.3059412 118.479442,39.9482175 146.999742,31.5313151 C148.297959,31.1479934 150.436583,30.5788415 151.7675,30.3053627 C168.731383,26.8178498 192.218641,16.987284 201.849806,3.75196355 C202.63217,2.67648092 203.684723,1.80037072 204.875436,1.11159538 C206.220251,0.334042875 207.305914,-0.0771157538 208.751283,0.10156709 C212.868707,0.611283414 212.905904,7.74844047 212.490196,13.7386418 C212.078577,19.6742978 208.036365,35.6575722 197.234106,45.5983571 C196.194634,46.3232452 200.506626,55.3871676 198.563798,73.2686181 C197.828441,80.0337387 196.565378,89.3286322 194.271425,98.1427747 C186.675877,127.330899 154.892049,177.239839 141.454117,198.729931 C126.805033,222.156944 106.330733,262.009237 106.330733,270.845574 M106.330733,270.845574 C106.330733,262.009237 85.8560245,222.156944 71.2069407,198.729931 C57.7694169,177.239839 25.9855894,127.330899 18.389632,98.1427747 C16.0960885,89.3286322 14.8326163,80.0337387 14.0972599,73.2686181 C12.1544312,55.3871676 16.4664237,46.3232452 15.426951,45.5983571 C4.62469261,35.6575722 0.58248073,19.6742978 0.170861014,13.7386418 C-0.244437527,7.74844047 -0.207649271,0.611283414 3.91018292,0.10156709 C5.35555264,-0.0771157538 6.44121497,0.334042875 7.78562137,1.11159538 C8.97633461,1.80037072 10.0288875,2.67648092 10.8112511,3.75196355 C20.4428254,16.987284 43.9296747,26.8178498 60.8939661,30.3053627 C62.2244747,30.5788415 64.3630987,31.1479934 65.6617242,31.5313151 C94.1816157,39.9482175 97.159012,46.3059412 97.7876824,46.5854388 C97.7022519,46.5636207 86.4201111,38.9701641 61.2904618,34.8100513 C46.2722692,32.3242908 27.739163,28.5441141 7.80973812,6.25916599 C6.72530207,4.69540897 4.24291226,4.01603799 4.45710167,7.98881592 C4.67129107,11.96197 5.54112896,31.4925692 23.3278423,46.0866315 C25.1455909,47.7745261 30.476618,50.0191588 30.476618,50.0191588 C29.8565315,50.304299 24.4596943,49.5211039 23.0670544,49.1103214 C22.9043686,49.0625473 22.7322813,49.0896318 22.6791427,49.2393492 C22.0226767,51.0848609 19.2602874,60.0709152 20.7747373,73.1072393 C22.0876693,84.4078947 25.5621157,97.4645323 29.1003285,108.237415 C40.2790534,142.27518 69.4991481,188.254602 75.038642,196.581223 C80.578136,204.907843 106.330733,254.532019 106.330733,257.930755" id="Fill-10" fill="#FFFFFF" mask="url(#mask-2)"></path>
                </g>
                <path d="M68.0811652,101.568971 C61.373031,101.568971 55.9357266,96.5650993 55.9357266,90.3920772 C55.9357266,84.2190552 61.373031,79.214807 68.0811652,79.214807 C74.7892994,79.214807 80.2266037,84.2190552 80.2266037,90.3920772 C80.2266037,96.5650993 74.7892994,101.568971 68.0811652,101.568971 L68.0811652,101.568971 Z M67.6474725,59.5427663 C48.8257829,59.5747411 34.5041146,72.9537601 34.5527569,90.4579077 C34.5989466,107.292089 49.3444973,121.060072 67.5191224,121.24026 C85.8543895,121.421576 101.708084,106.873783 101.609573,89.9579719 C101.510245,72.9571457 86.4957314,59.5100391 67.6474725,59.5427663 L67.6474725,59.5427663 Z" id="Fill-12" fill="#FFFFFF"></path>
                <path d="M143.755427,101.568971 C137.04811,101.568971 131.610806,96.5650993 131.610806,90.3920772 C131.610806,84.2190552 137.04811,79.214807 143.755427,79.214807 C150.463561,79.214807 155.901274,84.2190552 155.901274,90.3920772 C155.901274,96.5650993 150.463561,101.568971 143.755427,101.568971 L143.755427,101.568971 Z M143.322143,59.5427663 C124.500862,59.5747411 110.178376,72.9537601 110.227018,90.4579077 C110.274025,107.292089 125.019167,121.060072 143.193384,121.24026 C161.52906,121.421576 177.382346,106.873783 177.283835,89.9579719 C177.184915,72.9571457 162.170402,59.5100391 143.322143,59.5427663 L143.322143,59.5427663 Z" id="Fill-13" fill="#FFFFFF"></path>
                <path d="M93.5921861,107.313154 L104.898444,133.009628 L106.066266,132.980663 L117.987297,106.138738 L117.987297,94.2572693 L113.258371,96.7441583 C113.258371,96.7441583 106.428018,102.20132 98.2463093,96.7441583 L94.1178494,94.5337574 L93.5921861,107.313154" id="Fill-14" fill="#FFFFFF"></path>
                <path d="M106.103055,0.247898935 C138.128458,0.247898935 166.291504,14.6832157 182.546599,36.5122405 C179.887626,37.0313611 177.477178,38.0432703 175.477531,39.4163069 C160.487543,19.9094068 135.013719,7.07057419 106.103055,7.07057419 C76.534289,7.07057419 48.0066311,19.1589388 33.1674746,39.4174354 C31.4098135,37.6986945 29.0901095,36.483275 26.4801871,36.0265993 C42.6318668,13.7205854 73.661535,0.247898935 106.103055,0.247898935" id="Fill-15" fill="#FFFFFF"></path>
            </g>
        </g>
    </g>
</svg>