<?xml version="1.0" encoding="UTF-8" standalone="no"?>
<svg width="188px" height="163px" viewBox="0 0 188 162" version="1.1" xmlns="http://www.w3.org/2000/svg" xmlns:xlink="http://www.w3.org/1999/xlink">
    <!-- Generator: Sketch 3.8.2 (29753) - http://www.bohemiancoding.com/sketch -->
    <title>justenough-illustration</title>
    <desc>Created with Sketch.</desc>
    <defs></defs>
    <g id="design.tuva.co" stroke="none" stroke-width="1" fill="none" fill-rule="evenodd">
        <g id="justenough-illustration" transform="translate(1.000000, 2.000000)">
            <g id="Page-1">
                <g>
                    <g id="justenough-illustration">
                        <g id="group">
                            <polygon id="Fill-1" fill="#FFFFFF" points="158.738 47.384 143.404 47.384 151.072 32.166 158.738 47.384"></polygon>
                            <polygon id="Stroke-2" stroke="#1F5081" stroke-width="2" points="158.738 47.384 143.404 47.384 151.072 32.166 158.738 47.384"></polygon>
                            <polygon id="Fill-3" fill="#F7C342" points="143.404 47.384 158.738 47.384 158.738 121.618 143.404 121.618"></polygon>
                            <polygon id="Stroke-4" stroke="#1F5081" stroke-width="2" points="143.404 47.384 158.738 47.384 158.738 121.618 143.404 121.618"></polygon>
                            <path d="M156.738,134.9 L145.404,134.9 C144.3,134.9 143.404,134.004 143.404,132.9 L143.404,121.618 L158.738,121.618 L158.738,132.9 C158.738,134.004 157.842,134.9 156.738,134.9 L156.738,134.9 L156.738,134.9 Z" id="Fill-5" fill="#D04437"></path>
                            <path d="M156.738,134.9 L145.404,134.9 C144.3,134.9 143.404,134.004 143.404,132.9 L143.404,121.618 L158.738,121.618 L158.738,132.9 C158.738,134.004 157.842,134.9 156.738,134.9 L156.738,134.9 L156.738,134.9 Z" id="Stroke-6" stroke="#1F5081" stroke-width="2"></path>
                            <polyline id="Fill-7" fill="#1F5081" points="151.072 32.166 148.664 36.944 153.478 36.944 151.072 32.166"></polyline>
                            <path d="M185.16,79.492 L170.16,79.492 L170.16,35.218 C170.16,34.112 171.056,33.218 172.16,33.218 L183.16,33.218 C184.266,33.218 185.16,34.112 185.16,35.218 L185.16,79.492 L185.16,79.492 L185.16,79.492 Z" id="Fill-8" fill="#59AFE1"></path>
                            <path d="M185.16,79.492 L170.16,79.492 L170.16,35.218 C170.16,34.112 171.056,33.218 172.16,33.218 L183.16,33.218 C184.266,33.218 185.16,34.112 185.16,35.218 L185.16,79.492 L185.16,79.492 L185.16,79.492 Z" id="Stroke-9" stroke="#1F5081" stroke-width="2"></path>
                            <polygon id="Fill-10" fill="#FFFFFF" points="171.79 79.492 183.532 79.492 183.532 129.982 171.79 129.982"></polygon>
                            <polygon id="Stroke-11" stroke="#1F5081" stroke-width="2" points="171.79 79.492 183.532 79.492 183.532 129.982 171.79 129.982"></polygon>
                            <polyline id="Fill-12" fill="#ECF2F9" points="177.604 129.982 171.79 129.982 171.79 79.492 177.604 79.492"></polyline>
                            <polyline id="Stroke-13" stroke="#1F5081" stroke-width="2" points="177.604 129.982 171.79 129.982 171.79 79.492 177.604 79.492"></polyline>
                            <polygon id="Fill-14" fill="#59AFE1" points="171.79 135.784 183.532 135.784 183.532 129.982 171.79 129.982"></polygon>
                            <polygon id="Stroke-15" stroke="#1F5081" stroke-width="2" points="171.79 135.784 183.532 135.784 183.532 129.982 171.79 129.982"></polygon>
                            <path d="M177.66,37.996 L177.66,66.768 M170.994,37.996 L185.16,37.996" id="Stroke-16" stroke="#1F5081" stroke-width="2"></path>
                            <polygon id="Fill-17" fill="#ECF2F9" points="0.394 11.256 119.846 11.256 119.846 158.526 0.394 158.526"></polygon>
                            <polygon id="Stroke-18" stroke="#1F5081" stroke-width="2" points="0.394 11.256 119.846 11.256 119.846 158.526 0.394 158.526"></polygon>
                            <polygon id="Fill-19" fill="#FFFFFF" points="129.31 148.242 9.858 148.242 9.858 0.97 113.47 0.97 129.31 16.81 129.31 148.242"></polygon>
                            <polygon id="Stroke-20" stroke="#1F5081" stroke-width="2" points="129.31 148.242 9.858 148.242 9.858 0.97 113.47 0.97 129.31 16.81 129.31 148.242"></polygon>
                            <path d="M21.412,17.92 L75.026,17.92 M21.412,24.638 L74.702,24.638" id="Stroke-21" stroke="#1F5081" stroke-width="2"></path>
                            <path d="M48.218,82.834 C48.218,89.946 42.454,95.712 35.342,95.712 C28.23,95.712 22.466,89.946 22.466,82.834 C22.466,75.722 28.23,69.958 35.342,69.958 C42.454,69.958 48.218,75.722 48.218,82.834 L48.218,82.834 L48.218,82.834 Z" id="Fill-22" fill="#D04437"></path>
                            <path d="M48.218,82.834 C48.218,89.946 42.454,95.712 35.342,95.712 C28.23,95.712 22.466,89.946 22.466,82.834 C22.466,75.722 28.23,69.958 35.342,69.958 C42.454,69.958 48.218,75.722 48.218,82.834 L48.218,82.834 L48.218,82.834 Z" id="Stroke-23" stroke="#1F5081" stroke-width="2"></path>
                            <polygon id="Fill-24" fill="#3B7FC4" points="57.128 69.958 82.46 69.958 82.46 95.29 57.128 95.29"></polygon>
                            <polygon id="Stroke-25" stroke="#1F5081" stroke-width="2" points="57.128 69.958 82.46 69.958 82.46 95.29 57.128 95.29"></polygon>
                            <polygon id="Fill-26" fill="#F7C342" points="116.702 95.29 91.37 95.29 104.036 69.958 116.702 95.29"></polygon>
                            <polygon id="Stroke-27" stroke="#1F5081" stroke-width="2" points="116.702 95.29 91.37 95.29 104.036 69.958 116.702 95.29"></polygon>
                            <polygon id="Fill-28" fill="#ECF2F9" points="129.31 16.81 113.47 16.81 113.47 0.97 129.31 16.81"></polygon>
                            <polygon id="Stroke-29" stroke="#1F5081" stroke-width="2" points="129.31 16.81 113.47 16.81 113.47 0.97 129.31 16.81"></polygon>
                        </g>
                    </g>
                </g>
            </g>
        </g>
    </g>
</svg>
