<?xml version="1.0" encoding="UTF-8" standalone="no"?>
<svg width="195px" height="163px" viewBox="0 0 195 131" version="1.1" xmlns="http://www.w3.org/2000/svg" xmlns:xlink="http://www.w3.org/1999/xlink">
    <!-- Generator: Sketch 3.8.2 (29753) - http://www.bohemiancoding.com/sketch -->
    <title>personas-illustration</title>
    <desc>Created with Sketch.</desc>
    <defs>
        <path d="M83.34,42.16 C83.34,64.908 64.9,83.348 42.152,83.348 C19.404,83.348 0.962,64.908 0.962,42.16 C0.962,19.412 19.404,0.97 42.152,0.97 C64.9,0.97 83.34,19.412 83.34,42.16 L83.34,42.16 L83.34,42.16 Z" id="path-1"></path>
        <path d="M83.34,42.16 C83.34,64.908 64.9,83.348 42.152,83.348 C19.404,83.348 0.962,64.908 0.962,42.16 C0.962,19.412 19.404,0.97 42.152,0.97 C64.9,0.97 83.34,19.412 83.34,42.16 L83.34,42.16 L83.34,42.16 Z" id="path-3"></path>
        <path d="M83.34,42.16 C83.34,64.908 64.9,83.348 42.152,83.348 C19.404,83.348 0.962,64.908 0.962,42.16 C0.962,19.412 19.404,0.97 42.152,0.97 C64.9,0.97 83.34,19.412 83.34,42.16 L83.34,42.16 L83.34,42.16 Z" id="path-5"></path>
        <path d="M83.34,42.16 C83.34,64.908 64.9,83.348 42.152,83.348 C19.404,83.348 0.962,64.908 0.962,42.16 C0.962,19.412 19.404,0.97 42.152,0.97 C64.9,0.97 83.34,19.412 83.34,42.16 L83.34,42.16 L83.34,42.16 Z" id="path-7"></path>
        <path d="M83.34,42.16 C83.34,64.908 64.9,83.348 42.152,83.348 C19.404,83.348 0.962,64.908 0.962,42.16 C0.962,19.412 19.404,0.97 42.152,0.97 C64.9,0.97 83.34,19.412 83.34,42.16 L83.34,42.16 L83.34,42.16 Z" id="path-9"></path>
        <path d="M83.34,42.16 C83.34,64.908 64.9,83.348 42.152,83.348 C19.404,83.348 0.962,64.908 0.962,42.16 C0.962,19.412 19.404,0.97 42.152,0.97 C64.9,0.97 83.34,19.412 83.34,42.16 L83.34,42.16 L83.34,42.16 Z" id="path-11"></path>
        <path d="M83.34,42.16 C83.34,64.908 64.9,83.348 42.152,83.348 C19.404,83.348 0.962,64.908 0.962,42.16 C0.962,19.412 19.404,0.97 42.152,0.97 C64.9,0.97 83.34,19.412 83.34,42.16 L83.34,42.16 L83.34,42.16 Z" id="path-13"></path>
        <path d="M83.34,42.16 C83.34,64.908 64.9,83.348 42.152,83.348 C19.404,83.348 0.962,64.908 0.962,42.16 C0.962,19.412 19.404,0.97 42.152,0.97 C64.9,0.97 83.34,19.412 83.34,42.16 L83.34,42.16 L83.34,42.16 Z" id="path-15"></path>
        <path d="M83.34,42.16 C83.34,64.908 64.9,83.348 42.152,83.348 C19.404,83.348 0.962,64.908 0.962,42.16 C0.962,19.412 19.404,0.97 42.152,0.97 C64.9,0.97 83.34,19.412 83.34,42.16 L83.34,42.16 L83.34,42.16 Z" id="path-17"></path>
        <path d="M83.34,42.16 C83.34,64.908 64.9,83.348 42.152,83.348 C19.404,83.348 0.962,64.908 0.962,42.16 C0.962,19.412 19.404,0.97 42.152,0.97 C64.9,0.97 83.34,19.412 83.34,42.16 L83.34,42.16 L83.34,42.16 Z" id="path-19"></path>
        <path d="M83.34,42.16 C83.34,64.908 64.9,83.348 42.152,83.348 C19.404,83.348 0.962,64.908 0.962,42.16 C0.962,19.412 19.404,0.97 42.152,0.97 C64.9,0.97 83.34,19.412 83.34,42.16 L83.34,42.16 L83.34,42.16 Z" id="path-21"></path>
        <path d="M83.34,42.16 C83.34,64.908 64.9,83.348 42.152,83.348 C19.404,83.348 0.962,64.908 0.962,42.16 C0.962,19.412 19.404,0.97 42.152,0.97 C64.9,0.97 83.34,19.412 83.34,42.16 L83.34,42.16 L83.34,42.16 Z" id="path-23"></path>
        <path d="M82.966,42.16 C82.966,64.908 64.524,83.348 41.776,83.348 C19.028,83.348 0.588,64.908 0.588,42.16 C0.588,19.412 19.028,0.97 41.776,0.97 C64.524,0.97 82.966,19.412 82.966,42.16 L82.966,42.16 L82.966,42.16 Z" id="path-25"></path>
        <path d="M82.966,42.16 C82.966,64.908 64.524,83.348 41.776,83.348 C19.028,83.348 0.588,64.908 0.588,42.16 C0.588,19.412 19.028,0.97 41.776,0.97 C64.524,0.97 82.966,19.412 82.966,42.16 L82.966,42.16 L82.966,42.16 Z" id="path-27"></path>
    </defs>
    <g id="design.tuva.co" stroke="none" stroke-width="1" fill="none" fill-rule="evenodd">
        <g id="personas-illustration" transform="translate(1.000000, 1.000000)">
            <g id="Page-1">
                <g>
                    <g id="personas-illustration">
                        <g id="group">
                            <path d="M83.34,65.16 C83.34,87.908 64.9,106.348 42.152,106.348 C19.404,106.348 0.962,87.908 0.962,65.16 C0.962,42.412 19.404,23.97 42.152,23.97 C64.9,23.97 83.34,42.412 83.34,65.16" id="Fill-1" fill="#59AFE1"></path>
                            <g id="Group-15" transform="translate(0.000000, 23.000000)">
                                <g id="mask-2" fill="#FFFFFF">
                                    <path d="M83.34,42.16 C83.34,64.908 64.9,83.348 42.152,83.348 C19.404,83.348 0.962,64.908 0.962,42.16 C0.962,19.412 19.404,0.97 42.152,0.97 C64.9,0.97 83.34,19.412 83.34,42.16 L83.34,42.16 L83.34,42.16 Z" id="path-1"></path>
                                </g>
                                <g id="Stroke-2-Clipped">
                                    <mask id="mask-2" fill="white">
                                        <use xlink:href="#path-1"></use>
                                    </mask>
                                    <g id="path-1"></g>
                                    <path d="M63.016,86.25 L21.174,86.25 L21.174,45.754 C21.174,45.124 21.686,44.614 22.316,44.614 L61.876,44.614 C62.506,44.614 63.016,45.124 63.016,45.754 L63.016,86.25 L63.016,86.25 L63.016,86.25 Z" id="Stroke-2" stroke="#406391" stroke-width="2" mask="url(#mask-2)"></path>
                                </g>
                                <g id="Fill-4-Clipped">
                                    <mask id="mask-4" fill="white">
                                        <use xlink:href="#path-3"></use>
                                    </mask>
                                    <g id="path-1"></g>
                                    <path d="M63.734,86.25 L20.568,86.25 L20.568,38.532 C20.568,36.642 22.1,35.11 23.99,35.11 L60.312,35.11 C62.202,35.11 63.734,36.642 63.734,38.532 L63.734,86.25 L63.734,86.25 L63.734,86.25 Z" id="Fill-4" fill="#FFFFFF" mask="url(#mask-4)"></path>
                                </g>
                                <g id="Stroke-5-Clipped">
                                    <mask id="mask-6" fill="white">
                                        <use xlink:href="#path-5"></use>
                                    </mask>
                                    <g id="path-1"></g>
                                    <path d="M63.734,86.25 L20.568,86.25 L20.568,38.532 C20.568,36.642 22.1,35.11 23.99,35.11 L60.312,35.11 C62.202,35.11 63.734,36.642 63.734,38.532 L63.734,86.25 L63.734,86.25 L63.734,86.25 Z" id="Stroke-5" stroke="#1F5081" stroke-width="2" mask="url(#mask-6)"></path>
                                </g>
                                <g id="Fill-6-Clipped">
                                    <mask id="mask-8" fill="white">
                                        <use xlink:href="#path-7"></use>
                                    </mask>
                                    <g id="path-1"></g>
                                    <path d="M12.718,86.25 L20.568,86.25 L20.568,37.258 L20.564,37.258 C16.23,37.258 12.718,40.772 12.718,45.104 L12.718,86.25 L12.718,86.25 L12.718,86.25 Z" id="Fill-6" fill="#ECF2F9" mask="url(#mask-8)"></path>
                                </g>
                                <g id="Stroke-7-Clipped">
                                    <mask id="mask-10" fill="white">
                                        <use xlink:href="#path-9"></use>
                                    </mask>
                                    <g id="path-1"></g>
                                    <path d="M12.718,86.25 L20.568,86.25 L20.568,37.258 L20.564,37.258 C16.23,37.258 12.718,40.772 12.718,45.104 L12.718,86.25 L12.718,86.25 L12.718,86.25 Z" id="Stroke-7" stroke="#1F5081" stroke-width="2" mask="url(#mask-10)"></path>
                                </g>
                                <g id="Fill-8-Clipped">
                                    <mask id="mask-12" fill="white">
                                        <use xlink:href="#path-11"></use>
                                    </mask>
                                    <g id="path-1"></g>
                                    <path d="M71.586,86.25 L63.734,86.25 L63.734,37.258 L63.74,37.258 C68.072,37.258 71.586,40.772 71.586,45.104 L71.586,86.25 L71.586,86.25 L71.586,86.25 Z" id="Fill-8" fill="#ECF2F9" mask="url(#mask-12)"></path>
                                </g>
                                <g id="Stroke-9-Clipped">
                                    <mask id="mask-14" fill="white">
                                        <use xlink:href="#path-13"></use>
                                    </mask>
                                    <g id="path-1"></g>
                                    <path d="M71.586,86.25 L63.734,86.25 L63.734,37.258 L63.74,37.258 C68.072,37.258 71.586,40.772 71.586,45.104 L71.586,86.25 L71.586,86.25 L71.586,86.25 Z" id="Stroke-9" stroke="#1F5081" stroke-width="2" mask="url(#mask-14)"></path>
                                </g>
                                <g id="Fill-10-Clipped">
                                    <mask id="mask-16" fill="white">
                                        <use xlink:href="#path-15"></use>
                                    </mask>
                                    <g id="path-1"></g>
                                    <path d="M42.096,45.064 C34.676,45.064 28.662,51.078 28.662,58.498 L55.53,58.498 C55.53,51.078 49.514,45.064 42.096,45.064 L42.096,45.064 L42.096,45.064 Z" id="Fill-10" fill="#F7C342" mask="url(#mask-16)"></path>
                                </g>
                                <g id="Stroke-11-Clipped">
                                    <mask id="mask-18" fill="white">
                                        <use xlink:href="#path-17"></use>
                                    </mask>
                                    <g id="path-1"></g>
                                    <path d="M42.096,45.064 C34.676,45.064 28.662,51.078 28.662,58.498 L55.53,58.498 C55.53,51.078 49.514,45.064 42.096,45.064 L42.096,45.064 L42.096,45.064 Z" id="Stroke-11" stroke="#1F5081" stroke-width="2" mask="url(#mask-18)"></path>
                                </g>
                                <g id="Fill-12-Clipped">
                                    <mask id="mask-20" fill="white">
                                        <use xlink:href="#path-19"></use>
                                    </mask>
                                    <g id="path-1"></g>
                                    <polyline id="Fill-12" fill="#1F5081" mask="url(#mask-20)" points="40.942 55.322 41.428 59.17 45.154 58.096 47.764 49.812 40.942 55.322"></polyline>
                                </g>
                                <g id="Fill-13-Clipped">
                                    <mask id="mask-22" fill="white">
                                        <use xlink:href="#path-21"></use>
                                    </mask>
                                    <g id="path-1"></g>
                                    <path d="M46.102,58.498 C46.102,60.71 44.308,62.504 42.096,62.504 C39.882,62.504 38.09,60.71 38.09,58.498 C38.09,56.284 39.882,54.492 42.096,54.492 C44.308,54.492 46.102,56.284 46.102,58.498 L46.102,58.498 L46.102,58.498 Z" id="Fill-13" fill="#FFFFFF" mask="url(#mask-22)"></path>
                                </g>
                                <g id="Stroke-14-Clipped">
                                    <mask id="mask-24" fill="white">
                                        <use xlink:href="#path-23"></use>
                                    </mask>
                                    <g id="path-1"></g>
                                    <path d="M46.102,58.498 C46.102,60.71 44.308,62.504 42.096,62.504 C39.882,62.504 38.09,60.71 38.09,58.498 C38.09,56.284 39.882,54.492 42.096,54.492 C44.308,54.492 46.102,56.284 46.102,58.498 L46.102,58.498 L46.102,58.498 Z" id="Stroke-14" stroke="#1F5081" stroke-width="2" mask="url(#mask-24)"></path>
                                </g>
                            </g>
                            <path d="M83.34,65.16 C83.34,87.908 64.9,106.348 42.152,106.348 C19.404,106.348 0.962,87.908 0.962,65.16 C0.962,42.412 19.404,23.97 42.152,23.97 C64.9,23.97 83.34,42.412 83.34,65.16 L83.34,65.16 L83.34,65.16 Z" id="Stroke-16" stroke="#1F5081" stroke-width="2"></path>
                            <path d="M26.422,36.694 L22.96,36.694 C21.7,36.694 20.678,35.674 20.678,34.414 L20.678,27.19 C20.678,25.932 21.7,24.91 22.96,24.91 L26.422,24.91 L26.422,36.694 L26.422,36.694 L26.422,36.694 Z" id="Fill-17" fill="#ECF2F9"></path>
                            <path d="M26.422,36.694 L22.96,36.694 C21.7,36.694 20.678,35.674 20.678,34.414 L20.678,27.19 C20.678,25.932 21.7,24.91 22.96,24.91 L26.422,24.91 L26.422,36.694 L26.422,36.694 L26.422,36.694 Z" id="Stroke-18" stroke="#1F5081" stroke-width="2"></path>
                            <path d="M60.918,36.694 L57.456,36.694 L57.456,24.91 L60.918,24.91 C62.178,24.91 63.2,25.932 63.2,27.19 L63.2,34.414 C63.2,35.674 62.178,36.694 60.918,36.694 L60.918,36.694 L60.918,36.694 Z" id="Fill-19" fill="#ECF2F9"></path>
                            <path d="M60.918,36.694 L57.456,36.694 L57.456,24.91 L60.918,24.91 C62.178,24.91 63.2,25.932 63.2,27.19 L63.2,34.414 C63.2,35.674 62.178,36.694 60.918,36.694 L60.918,36.694 L60.918,36.694 Z" id="Stroke-20" stroke="#1F5081" stroke-width="2"></path>
                            <path d="M55.838,48.314 L28.352,48.314 C26.766,48.314 25.48,47.028 25.48,45.442 L25.48,19.132 C25.48,17.546 26.766,16.26 28.352,16.26 L55.838,16.26 C57.424,16.26 58.71,17.546 58.71,19.132 L58.71,45.442 C58.71,47.028 57.424,48.314 55.838,48.314 L55.838,48.314 L55.838,48.314 Z" id="Fill-21" fill="#FFFFFF"></path>
                            <path d="M55.838,48.314 L28.352,48.314 C26.766,48.314 25.48,47.028 25.48,45.442 L25.48,19.132 C25.48,17.546 26.766,16.26 28.352,16.26 L55.838,16.26 C57.424,16.26 58.71,17.546 58.71,19.132 L58.71,45.442 C58.71,47.028 57.424,48.314 55.838,48.314 L55.838,48.314 L55.838,48.314 Z" id="Stroke-22" stroke="#1F5081" stroke-width="2"></path>
                            <path d="M39.058,27.15 C39.058,28.994 37.562,30.488 35.718,30.488 C33.874,30.488 32.378,28.994 32.378,27.15 C32.378,25.304 33.874,23.81 35.718,23.81 C37.562,23.81 39.058,25.304 39.058,27.15" id="Fill-23" fill="#1F5081"></path>
                            <path d="M52.176,27.15 C52.176,28.994 50.682,30.488 48.838,30.488 C46.992,30.488 45.498,28.994 45.498,27.15 C45.498,25.304 46.992,23.81 48.838,23.81 C50.682,23.81 52.176,25.304 52.176,27.15" id="Fill-24" fill="#1F5081"></path>
                            <polygon id="Fill-25" fill="#ECF2F9" points="31.082 48.314 53.22 48.314 53.22 57.742 31.082 57.742"></polygon>
                            <polygon id="Stroke-26" stroke="#1F5081" stroke-width="2" points="31.082 48.314 53.22 48.314 53.22 57.742 31.082 57.742"></polygon>
                            <path d="M42.152,3.056 L42.152,16.26" id="Stroke-27" stroke="#1F5081" stroke-width="2"></path>
                            <path d="M46.274,4.492 C46.274,6.77 44.428,8.616 42.152,8.616 C39.874,8.616 38.028,6.77 38.028,4.492 C38.028,2.214 39.874,0.368 42.152,0.368 C44.428,0.368 46.274,2.214 46.274,4.492 L46.274,4.492 L46.274,4.492 Z" id="Fill-28" fill="#59AFE1"></path>
                            <path d="M46.274,4.492 C46.274,6.77 44.428,8.616 42.152,8.616 C39.874,8.616 38.028,6.77 38.028,4.492 C38.028,2.214 39.874,0.368 42.152,0.368 C44.428,0.368 46.274,2.214 46.274,4.492 L46.274,4.492 L46.274,4.492 Z" id="Stroke-29" stroke="#1F5081" stroke-width="2"></path>
                            <path d="M45.86,38.84 C45.86,40.918 44.174,42.604 42.096,42.604 C40.016,42.604 38.33,40.918 38.33,38.84 C38.33,36.76 40.016,38.52 42.096,38.52 C44.174,38.52 45.86,36.76 45.86,38.84" id="Fill-30" fill="#406391"></path>
                            <path d="M192.966,65.16 C192.966,87.908 174.524,106.348 151.776,106.348 C129.028,106.348 110.588,87.908 110.588,65.16 C110.588,42.412 129.028,23.97 151.776,23.97 C174.524,23.97 192.966,42.412 192.966,65.16" id="Fill-31" fill="#59AFE1"></path>
                            <g id="Group-35" transform="translate(110.000000, 23.000000)">
                                <g id="mask-4" fill="#FFFFFF">
                                    <path d="M82.966,42.16 C82.966,64.908 64.524,83.348 41.776,83.348 C19.028,83.348 0.588,64.908 0.588,42.16 C0.588,19.412 19.028,0.97 41.776,0.97 C64.524,0.97 82.966,19.412 82.966,42.16 L82.966,42.16 L82.966,42.16 Z" id="path-3"></path>
                                </g>
                                <g id="Fill-32-Clipped">
                                    <mask id="mask-26" fill="white">
                                        <use xlink:href="#path-25"></use>
                                    </mask>
                                    <g id="path-3"></g>
                                    <path d="M50.734,50.298 L42.018,48.93 L33.3,50.298 C27.044,51.28 22.432,56.67 22.432,63.004 L22.432,88.436 L61.602,88.436 L61.602,63.004 C61.602,56.67 56.992,51.28 50.734,50.298 L50.734,50.298 L50.734,50.298 Z" id="Fill-32" fill="#ECF2F9" mask="url(#mask-26)"></path>
                                </g>
                                <g id="Stroke-34-Clipped">
                                    <mask id="mask-28" fill="white">
                                        <use xlink:href="#path-27"></use>
                                    </mask>
                                    <g id="path-3"></g>
                                    <path d="M50.734,50.298 L42.018,48.93 L33.3,50.298 C27.044,51.28 22.432,56.67 22.432,63.004 L22.432,88.436 L61.602,88.436 L61.602,63.004 C61.602,56.67 56.992,51.28 50.734,50.298 L50.734,50.298 L50.734,50.298 Z" id="Stroke-34" stroke="#1F5081" stroke-width="2" mask="url(#mask-28)"></path>
                                </g>
                            </g>
                            <path d="M192.966,65.16 C192.966,87.908 174.524,106.348 151.776,106.348 C129.028,106.348 110.588,87.908 110.588,65.16 C110.588,42.412 129.028,23.97 151.776,23.97 C174.524,23.97 192.966,42.412 192.966,65.16 L192.966,65.16 L192.966,65.16 Z" id="Stroke-36" stroke="#1F5081" stroke-width="2"></path>
                            <path d="M151.776,79.944 L151.776,79.944 C148.458,79.944 145.766,77.252 145.766,73.932 L145.766,63.918 L157.788,63.918 L157.788,73.932 C157.788,77.252 155.096,79.944 151.776,79.944 L151.776,79.944 L151.776,79.944 Z" id="Fill-37" fill="#FFFFFF"></path>
                            <path d="M151.776,79.944 L151.776,79.944 C148.458,79.944 145.766,77.252 145.766,73.932 L145.766,63.918 L157.788,63.918 L157.788,73.932 C157.788,77.252 155.096,79.944 151.776,79.944 L151.776,79.944 L151.776,79.944 Z" id="Stroke-38" stroke="#1F5081" stroke-width="2"></path>
                            <path d="M152.082,69.46 L151.472,69.46 C140.108,69.46 130.894,60.248 130.894,48.884 L130.894,17.694 L172.658,17.694 L172.658,48.884 C172.658,60.248 163.446,69.46 152.082,69.46 L152.082,69.46 L152.082,69.46 Z" id="Fill-39" fill="#FFFFFF"></path>
                            <path d="M152.082,69.46 L151.472,69.46 C140.108,69.46 130.894,60.248 130.894,48.884 L130.894,17.694 L172.658,17.694 L172.658,48.884 C172.658,60.248 163.446,69.46 152.082,69.46 L152.082,69.46 L152.082,69.46 Z" id="Stroke-40" stroke="#1F5081" stroke-width="2"></path>
                            <path d="M126.848,39.836 L126.848,17.428 C126.848,14.99 127.426,12.588 128.534,10.416 L130.248,7.054 C132.186,-1.95 146.868,0.448 149.116,1.322 C151.256,2.152 153.586,2.364 155.84,1.934 C159.986,1.142 164.246,2.544 167.112,5.642 L173.746,12.812 C175.518,15.246 176.472,18.18 176.472,21.192 L176.472,40.404 L172.658,40.404 L172.658,19.846 L171.286,20.312 C169.322,20.98 167.226,21.162 165.176,20.842 L161.972,20.346 C159.862,20.018 157.704,20.22 155.692,20.936 L147.83,23.73 C144.78,24.814 141.434,24.708 138.46,23.432 L130.894,20.192 L130.894,39.836 L126.848,39.836 L126.848,39.836 L126.848,39.836 Z" id="Fill-41" fill="#F7C342"></path>
                            <path d="M126.848,39.836 L126.848,17.428 C126.848,14.99 127.426,12.588 128.534,10.416 L130.248,7.054 C132.186,-1.95 146.868,0.448 149.116,1.322 C151.256,2.152 153.586,2.364 155.84,1.934 C159.986,1.142 164.246,2.544 167.112,5.642 L173.746,12.812 C175.518,15.246 176.472,18.18 176.472,21.192 L176.472,40.404 L172.658,40.404 L172.658,19.846 L171.286,20.312 C169.322,20.98 167.226,21.162 165.176,20.842 L161.972,20.346 C159.862,20.018 157.704,20.22 155.692,20.936 L147.83,23.73 C144.78,24.814 141.434,24.708 138.46,23.432 L130.894,20.192 L130.894,39.836 L126.848,39.836 L126.848,39.836 L126.848,39.836 Z" id="Stroke-42" stroke="#1F5081" stroke-width="2"></path>
                            <path d="M172.658,35.134 L172.658,46.054 C172.658,46.158 172.644,46.258 172.642,46.362 C175.482,46.05 177.7,43.67 177.7,40.748 C177.7,37.83 175.49,35.454 172.658,35.134 L172.658,35.134 L172.658,35.134 Z" id="Fill-43" fill="#ECF2F9"></path>
                            <path d="M172.658,35.134 L172.658,46.054 C172.658,46.158 172.644,46.258 172.642,46.362 C175.482,46.05 177.7,43.67 177.7,40.748 C177.7,37.83 175.49,35.454 172.658,35.134 L172.658,35.134 L172.658,35.134 Z" id="Stroke-44" stroke="#1F5081" stroke-width="2"></path>
                            <path d="M130.894,46.054 L130.894,35.134 C128.062,35.454 125.854,37.83 125.854,40.748 C125.854,43.67 128.072,46.05 130.91,46.362 C130.908,46.258 130.894,46.158 130.894,46.054 L130.894,46.054 L130.894,46.054 Z" id="Fill-45" fill="#ECF2F9"></path>
                            <path d="M130.894,46.054 L130.894,35.134 C128.062,35.454 125.854,37.83 125.854,40.748 C125.854,43.67 128.072,46.05 130.91,46.362 C130.908,46.258 130.894,46.158 130.894,46.054 L130.894,46.054 L130.894,46.054 Z" id="Stroke-46" stroke="#1F5081" stroke-width="2"></path>
                            <path d="M148.266,36.688 C148.266,34.616 149.946,32.936 152.018,32.936 C154.09,32.936 155.77,34.616 155.77,36.688" id="Stroke-47" stroke="#1F5081" stroke-width="2"></path>
                            <path d="M136.874,31.022 L146.668,31.022 L146.746,31.022 C148.754,31.046 150.326,32.772 150.326,34.778 L150.326,35.22 C150.326,35.22 149.972,41.69 146.21,41.69 L138.624,41.69 C135.318,41.69 134.776,38.57 134.776,37.134 L134.776,33.12 C134.776,31.962 135.716,31.022 136.874,31.022" id="Fill-48" fill="#1F5081"></path>
                            <path d="M166.626,31.022 L156.832,31.022 L156.754,31.022 C154.748,31.046 153.174,32.772 153.174,34.778 L153.174,35.22 C153.174,35.22 153.53,41.69 157.29,41.69 L164.878,41.69 C168.182,41.69 168.726,38.57 168.726,37.134 L168.726,33.12 C168.726,31.962 167.786,31.022 166.626,31.022" id="Fill-49" fill="#1F5081"></path>
                            <path d="M172.552,41.69 L169.722,46.522 C169.026,47.71 168.144,48.78 167.108,49.688 L161.432,54.67 C159.68,51.032 155.97,48.514 151.662,48.514 L151.65,48.514 C147.4,48.514 143.732,50.962 141.952,54.522 L136.446,49.688 C135.41,48.78 134.528,47.71 133.832,46.522 L131.002,41.69 L130.894,41.894 L130.894,48.884 C130.894,60.248 140.108,69.46 151.472,69.46 L152.082,69.46 C163.446,69.46 172.658,60.248 172.658,48.884 L172.658,41.894 L172.552,41.69 L172.552,41.69 L172.552,41.69 Z" id="Fill-50" fill="#F7C342"></path>
                            <path d="M172.552,41.69 L169.722,46.522 C169.026,47.71 168.144,48.78 167.108,49.688 L161.432,54.67 C159.68,51.032 155.97,48.514 151.662,48.514 L151.65,48.514 C147.4,48.514 143.732,50.962 141.952,54.522 L136.446,49.688 C135.41,48.78 134.528,47.71 133.832,46.522 L131.002,41.69 L130.894,41.894 L130.894,48.884 C130.894,60.248 140.108,69.46 151.472,69.46 L152.082,69.46 C163.446,69.46 172.658,60.248 172.658,48.884 L172.658,41.894 L172.552,41.69 L172.552,41.69 L172.552,41.69 Z" id="Stroke-51" stroke="#1F5081" stroke-width="2"></path>
                            <path d="M151.776,59.628 C154.294,59.628 156.336,57.586 156.336,55.068 L147.218,55.068 C147.218,57.586 149.258,59.628 151.776,59.628" id="Fill-52" fill="#1F5081"></path>
                            <path d="M13.494,118.184 L70.81,118.184 M13.494,128.646 L70.81,128.646 M123.36,118.184 L180.676,118.184 M123.36,128.646 L180.676,128.646" id="Stroke-53" stroke="#1F5081" stroke-width="2"></path>
                        </g>
                    </g>
                </g>
            </g>
        </g>
    </g>
</svg>
