<?xml version="1.0" encoding="UTF-8" standalone="no"?>
<svg width="175px" height="163px" viewBox="0 0 175 139" version="1.1" xmlns="http://www.w3.org/2000/svg" xmlns:xlink="http://www.w3.org/1999/xlink">
    <!-- Generator: Sketch 3.8.2 (29753) - http://www.bohemiancoding.com/sketch -->
    <title>playbook-illustration</title>
    <desc>Created with Sketch.</desc>
    <defs></defs>
    <g id="design.tuva.co" stroke="none" stroke-width="1" fill="none" fill-rule="evenodd">
        <g id="playbook-illustration" transform="translate(1.000000, 1.000000)">
            <g id="Page-1">
                <g>
                    <g id="playbook-illustration">
                        <g id="group">
                            <polygon id="Fill-1" stroke="#205081" stroke-width="2" fill="#D04437" points="0.696 10.158 172.732 10.158 172.732 136.984 0.696 136.984"></polygon>
                            <polygon id="Fill-3" stroke="#205081" stroke-width="2" fill="#FFFFFF" points="86.714 128.914 96.3 123.364 166.426 123.364 166.426 0.77 96.3 0.77 86.714 9.85 86.714 128.914"></polygon>
                            <polygon id="Fill-5" stroke="#205081" stroke-width="2" fill="#ECF2F9" points="86.714 128.914 166.426 128.914 166.426 123.364 96.3 123.364 86.714 128.914"></polygon>
                            <polygon id="Fill-7" stroke="#205081" stroke-width="2" fill="#FFFFFF" points="86.714 128.914 77.128 123.364 7.004 123.364 7.004 0.77 77.128 0.77 86.714 9.85 86.714 128.914"></polygon>
                            <polygon id="Fill-9" stroke="#205081" stroke-width="2" fill="#ECF2F9" points="86.714 128.914 7.004 128.914 7.004 123.364 77.128 123.364 86.714 128.914"></polygon>
                            <polyline id="Fill-11" stroke="#205081" stroke-width="2" fill="#ECF2F9" points="96.3 0.77 86.714 9.85 86.714 128.914 96.3 123.364"></polyline>
                            <path d="M109.578,44.502 L151.868,44.502 L109.578,44.502 L109.578,44.502 Z M109.578,73.364 L151.868,73.364 L109.578,73.364 L109.578,73.364 Z M121.61,56.61 L151.868,56.61 L121.61,56.61 L121.61,56.61 Z M121.61,60.724 L151.868,60.724 L121.61,60.724 L121.61,60.724 Z M116.676,58.934 C116.676,60.894 115.088,62.482 113.128,62.482 C111.168,62.482 109.578,60.894 109.578,58.934 C109.578,56.974 111.168,55.384 113.128,55.384 C115.088,55.384 116.676,56.974 116.676,58.934 L116.676,58.934 L116.676,58.934 Z M121.61,27.748 L151.868,27.748 L121.61,27.748 L121.61,27.748 Z M121.61,31.862 L151.868,31.862 L121.61,31.862 L121.61,31.862 Z M116.676,30.07 C116.676,32.032 115.088,33.62 113.128,33.62 C111.168,33.62 109.578,32.032 109.578,30.07 C109.578,28.11 111.168,26.522 113.128,26.522 C115.088,26.522 116.676,28.11 116.676,30.07 L116.676,30.07 L116.676,30.07 Z M121.61,85.472 L151.868,85.472 L121.61,85.472 L121.61,85.472 Z M121.61,89.586 L151.868,89.586 L121.61,89.586 L121.61,89.586 Z M116.676,87.796 C116.676,89.756 115.088,91.346 113.128,91.346 C111.168,91.346 109.578,89.756 109.578,87.796 C109.578,85.836 111.168,84.246 113.128,84.246 C115.088,84.246 116.676,85.836 116.676,87.796 L116.676,87.796 L116.676,87.796 Z" id="Stroke-13" stroke="#1F5081" stroke-width="2"></path>
                            <polygon id="Fill-14" fill="#ECF2F9" points="12.948 6.592 76.44 6.592 76.44 118.004 12.948 118.004"></polygon>
                            <path d="M45.206,76.134 C45.206,78.374 43.392,80.188 41.152,80.188 C38.912,80.188 37.098,78.374 37.098,76.134 C37.098,73.896 38.912,72.08 41.152,72.08 C43.392,72.08 45.206,73.896 45.206,76.134 L45.206,76.134 L45.206,76.134 Z" id="Fill-15" stroke="#205081" stroke-width="2" fill="#FFFFFF"></path>
                            <path d="M57.414,76.134 C57.414,78.374 55.6,80.188 53.36,80.188 C51.12,80.188 49.306,78.374 49.306,76.134 C49.306,73.896 51.12,72.08 53.36,72.08 C55.6,72.08 57.414,73.896 57.414,76.134 L57.414,76.134 L57.414,76.134 Z" id="Fill-17" stroke="#205081" stroke-width="2" fill="#FFFFFF"></path>
                            <path d="M24.356,76.134 L24.356,50.65 L39.704,50.65 M37.098,47.992 L39.754,50.65 L37.098,53.306 M34.068,90.276 L31.412,87.62 L34.068,84.962" id="Stroke-19" stroke="#1F5081" stroke-width="2"></path>
                            <path d="M28.41,76.134 C28.41,78.374 26.594,80.188 24.356,80.188 C22.116,80.188 20.3,78.374 20.3,76.134 C20.3,73.896 22.116,72.08 24.356,72.08 C26.594,72.08 28.41,73.896 28.41,76.134 L28.41,76.134 L28.41,76.134 Z" id="Fill-20" stroke="#205081" stroke-width="2" fill="#FFFFFF"></path>
                            <path d="M31.908,62.914 L36.23,67.234 M31.908,67.39 L36.23,63.07 M41.152,62.914 L45.474,67.234 M41.152,67.39 L45.474,63.07 M51.2,62.914 L55.52,67.234 M51.2,67.39 L55.52,63.07 M60.712,62.836 L65.032,67.156 M60.712,67.312 L65.032,62.992 M47.146,43.516 L51.466,47.836 M47.146,47.992 L51.466,43.672 M65.032,76.134 L65.032,87.62 L32.108,87.62" id="Stroke-22" stroke="#1F5081" stroke-width="2"></path>
                            <path d="M69.088,76.134 C69.088,78.374 67.272,80.188 65.032,80.188 C62.794,80.188 60.978,78.374 60.978,76.134 C60.978,73.896 62.794,72.08 65.032,72.08 C67.272,72.08 69.088,73.896 69.088,76.134 L69.088,76.134 L69.088,76.134 Z" id="Fill-23" stroke="#205081" stroke-width="2" fill="#FFFFFF"></path>
                            <path d="M21.094,15.374 L68.294,15.374 M21.094,22.138 L68.294,22.138 M21.094,28.904 L68.294,28.904" id="Stroke-25" stroke="#1F5081" stroke-width="2"></path>
                        </g>
                    </g>
                </g>
            </g>
        </g>
    </g>
</svg>
