<?xml version="1.0" encoding="UTF-8" standalone="no"?>
<svg width="194px" height="163px" viewBox="0 0 194 194" version="1.1" xmlns="http://www.w3.org/2000/svg" xmlns:xlink="http://www.w3.org/1999/xlink">
    <!-- Generator: Sketch 3.8.2 (29753) - http://www.bohemiancoding.com/sketch -->
    <title>resources-illustration</title>
    <desc>Created with Sketch.</desc>
    <defs></defs>
    <g id="design.tuva.co" stroke="none" stroke-width="1" fill="none" fill-rule="evenodd">
        <g id="resources-illustration" transform="translate(1.000000, 1.000000)">
            <g id="Page-1">
                <g>
                    <g id="resources-illustration">
                        <g id="group">
                            <polygon id="Fill-1" fill="#F7C342" points="28 124.346 94.666 124.346 94.666 191.012 28 191.012"></polygon>
                            <polygon id="Stroke-2" stroke="#1F5081" stroke-width="2" points="28 124.346 94.666 124.346 94.666 191.012 28 191.012"></polygon>
                            <path d="M83.19,157.678 C83.19,169.75 73.404,179.534 61.334,179.534 C49.262,179.534 39.476,169.75 39.476,157.678 C39.476,145.608 49.262,135.822 61.334,135.822 C73.404,135.822 83.19,145.608 83.19,157.678 L83.19,157.678 L83.19,157.678 Z" id="Fill-3" fill="#ECF2F9"></path>
                            <path d="M83.19,157.678 C83.19,169.75 73.404,179.534 61.334,179.534 C49.262,179.534 39.476,169.75 39.476,157.678 C39.476,145.608 49.262,135.822 61.334,135.822 C73.404,135.822 83.19,145.608 83.19,157.678 L83.19,157.678 L83.19,157.678 Z" id="Stroke-4" stroke="#1F5081" stroke-width="2"></path>
                            <polygon id="Fill-5" fill="#ECF2F9" points="0 0 92.37 0 92.37 92.37 0 92.37"></polygon>
                            <polygon id="Stroke-6" stroke="#1F5081" stroke-width="2" points="0 0 92.37 0 92.37 92.37 0 92.37"></polygon>
                            <polygon id="Fill-7" fill="#59AFE1" points="70.872 65.524 154.248 65.524 154.248 148.9 70.872 148.9"></polygon>
                            <polygon id="Stroke-8" stroke="#1F5081" stroke-width="2" points="70.872 65.524 154.248 65.524 154.248 148.9 70.872 148.9"></polygon>
                            <polygon id="Fill-9" fill="#FFFFFF" points="138 33.77 192 33.77 192 87.77 138 87.77"></polygon>
                            <polygon id="Stroke-10" stroke="#1F5081" stroke-width="2" points="138 33.77 192 33.77 192 87.77 138 87.77"></polygon>
                            <path d="M109.914,109.108 C107.882,110.804 104.98,111.65 101.208,111.65 L93.98,111.65 L93.98,124.132 L86.774,124.132 L86.774,89.42 L101.68,89.42 C105.114,89.42 107.854,90.314 109.898,92.104 C111.94,93.894 112.962,96.666 112.962,100.418 C112.962,104.516 111.946,107.412 109.914,109.108 L109.914,109.108 L109.914,109.108 Z M104.378,96.602 C103.46,95.834 102.172,95.448 100.518,95.448 L93.98,95.448 L93.98,105.67 L100.518,105.67 C102.172,105.67 103.46,105.254 104.378,104.422 C105.296,103.59 105.756,102.27 105.756,100.464 C105.756,98.658 105.296,97.372 104.378,96.602 L104.378,96.602 L104.378,96.602 Z M121.674,115.938 C121.814,117.13 122.122,117.978 122.596,118.48 C123.432,119.376 124.978,119.822 127.234,119.822 C128.56,119.822 129.612,119.626 130.394,119.234 C131.174,118.842 131.564,118.252 131.564,117.468 C131.564,116.714 131.25,116.142 130.62,115.748 C129.992,115.356 127.65,114.682 123.6,113.724 C120.682,113.002 118.628,112.098 117.434,111.016 C116.24,109.948 115.644,108.408 115.644,106.4 C115.644,104.028 116.576,101.992 118.44,100.288 C120.306,98.586 122.93,97.732 126.312,97.732 C129.522,97.732 132.138,98.374 134.16,99.654 C136.18,100.932 137.34,103.142 137.64,106.282 L130.928,106.282 C130.834,105.418 130.59,104.736 130.196,104.232 C129.456,103.322 128.196,102.866 126.418,102.866 C124.952,102.866 123.91,103.094 123.288,103.55 C122.666,104.006 122.356,104.538 122.356,105.152 C122.356,105.92 122.688,106.478 123.348,106.824 C124.01,107.184 126.346,107.804 130.356,108.684 C133.03,109.312 135.034,110.262 136.368,111.534 C137.688,112.82 138.346,114.43 138.346,116.362 C138.346,118.904 137.398,120.982 135.504,122.59 C133.606,124.198 130.678,125.004 126.712,125.004 C122.67,125.004 119.684,124.152 117.758,122.45 C115.83,120.746 114.868,118.574 114.868,115.938 L121.674,115.938 L121.674,115.938 L121.674,115.938 Z" id="Fill-11" fill="#1F5081"></path>
                            <polygon id="Fill-12" fill="#F7C342" points="62.1 23.366 30.268 23.366 24.132 37.94 46.186 69.004 68.238 37.94 62.1 23.366"></polygon>
                            <polygon id="Stroke-13" stroke="#1F5081" stroke-width="2" points="62.1 23.366 30.268 23.366 24.132 37.94 46.186 69.004 68.238 37.94 62.1 23.366"></polygon>
                            <path d="M62.1,23.366 L24.132,37.748 M30.268,23.366 L68.238,37.748" id="Stroke-14" stroke="#1F5081" stroke-width="2"></path>
                            <path d="M24.708,37.748 L68.238,37.748 M46.186,69.004 L33.72,37.748 M46.186,69.004 L58.65,37.748" id="Stroke-15" stroke="#1F5081" stroke-width="2"></path>
                            <path d="M172.196,72.73 C172.196,75.252 168.974,77.298 165,77.298 C161.026,77.298 157.804,75.252 157.804,72.73 C157.804,70.206 161.026,68.162 165,68.162 C168.974,68.162 172.196,70.206 172.196,72.73 L172.196,72.73 L172.196,72.73 Z" id="Fill-16" fill="#ECF2F9"></path>
                            <path d="M172.196,72.73 C172.196,75.252 168.974,77.298 165,77.298 C161.026,77.298 157.804,75.252 157.804,72.73 C157.804,70.206 161.026,68.162 165,68.162 C168.974,68.162 172.196,70.206 172.196,72.73 L172.196,72.73 L172.196,72.73 Z" id="Stroke-17" stroke="#1F5081" stroke-width="2"></path>
                            <polygon id="Fill-18" fill="#59AFE1" points="180.874 60.916 149.126 60.916 151.126 44.242 178.874 44.242 180.874 60.916"></polygon>
                            <polygon id="Stroke-19" stroke="#1F5081" stroke-width="2" points="180.874 60.916 149.126 60.916 151.126 44.242 178.874 44.242 180.874 60.916"></polygon>
                            <polyline id="Fill-20" fill="#1F5081" points="155.634 56.916 156.674 48.242 173.326 48.242 174.366 56.916 155.634 56.916"></polyline>
                            <path d="M165,73.478 L165,73.478 C163.586,73.478 162.442,72.334 162.442,70.92 L162.442,60.916 L167.558,60.916 L167.558,70.92 C167.558,72.334 166.414,73.478 165,73.478 L165,73.478 L165,73.478 Z" id="Fill-21" fill="#ECF2F9"></path>
                            <path d="M165,73.478 L165,73.478 C163.586,73.478 162.442,72.334 162.442,70.92 L162.442,60.916 L167.558,60.916 L167.558,70.92 C167.558,72.334 166.414,73.478 165,73.478 L165,73.478 L165,73.478 Z" id="Stroke-22" stroke="#1F5081" stroke-width="2"></path>
                            <polyline id="Fill-23" fill="#1F5081" points="55.988 146.188 71.478 157.678 55.988 169.17 55.988 146.188"></polyline>
                        </g>
                    </g>
                </g>
            </g>
        </g>
    </g>
</svg>
