<?xml version="1.0" encoding="UTF-8" standalone="no"?>
<svg width="160px" height="163px" viewBox="0 0 180 193" version="1.1" xmlns="http://www.w3.org/2000/svg" xmlns:xlink="http://www.w3.org/1999/xlink">
    <!-- Generator: Sketch 3.8.2 (29753) - http://www.bohemiancoding.com/sketch -->
    <title>brand-illustration</title>
    <desc>Created with Sketch.</desc>
    <defs></defs>
    <g id="design.tuva.co" stroke="none" stroke-width="1" fill="none" fill-rule="evenodd">
        <g id="brand-illustration" transform="translate(1.000000, 1.000000)">
            <g id="Page-1">
                <g>
                    <g id="brand-illustration">
                        <g id="group">
                            <polygon id="Fill-1" stroke="#205081" stroke-width="2" fill="#F0F1F1" points="119.784 169.418 26.01 189.968 0.32 72.75 94.096 52.2 119.784 169.418"></polygon>
                            <g id="color-chart" transform="translate(31.000000, 85.000000)" stroke="#205081" stroke-width="2">
                                <path d="M40.338,27.93 C39.67,33.486 35.584,38.27 29.81,39.536 L32.522,51.916 C43.708,49.466 51.618,40.202 52.912,29.442 L40.338,27.93 L40.338,27.93 L40.338,27.93 Z" id="Fill-3" fill="#F6C342"></path>
                                <path d="M18.412,36.838 L9.902,46.218 C15.93,51.36 24.188,53.744 32.522,51.916 L29.81,39.536 C25.636,40.45 21.498,39.326 18.412,36.838 L18.412,36.838 L18.412,36.838 Z" id="Fill-5" fill="#D04437"></path>
                                <path d="M36.556,16.838 L45.086,7.436 C38.99,1.578 30.18,-1.232 21.302,0.714 L24.014,13.096 C28.73,12.062 33.402,13.634 36.556,16.838 L36.556,16.838 L36.556,16.838 Z" id="Fill-7" fill="#67AB49"></path>
                                <path d="M13.692,29.214 C12.092,21.912 16.714,14.696 24.014,13.096 L21.302,0.714 C7.162,3.814 -1.788,17.788 1.31,31.926 C2.582,37.73 5.706,42.638 9.902,46.218 L18.412,36.838 C16.1,34.972 14.378,32.342 13.692,29.214 L13.692,29.214 L13.692,29.214 Z" id="Fill-9" fill="#59AFE1"></path>
                                <path d="M40.132,23.418 C40.466,24.944 40.514,26.462 40.338,27.93 L52.912,29.442 C53.254,26.6 53.16,23.66 52.514,20.706 C51.36,15.444 48.698,10.906 45.086,7.436 L36.556,16.838 C38.286,18.594 39.566,20.834 40.132,23.418 L40.132,23.418 L40.132,23.418 Z" id="Fill-11" fill="#C16449"></path>
                            </g>
                            <path d="M33.934,165.452 L102.332,150.462 M35.346,171.898 L103.746,156.908" id="Stroke-13" stroke="#1F5081" stroke-width="2"></path>
                            <polygon id="Fill-14" stroke="#205081" stroke-width="2" fill="#FFFFFF" points="157.6 135.66 63.124 118.626 84.418 0.53 163.386 14.768 176.104 33.038 157.6 135.66"></polygon>
                            <path d="M81.074,99.252 L149.986,111.676 M79.904,105.744 L148.814,118.17 M96.57,13.318 L133.444,19.966 M95.398,19.812 L132.274,26.46" id="Stroke-16" stroke="#1F5081" stroke-width="2"></path>
                            <path d="M107.706,42.114 L116.102,43.628 L122.26,81.402 L114.214,79.95 L113.188,72.23 L100.114,69.872 L96.388,76.736 L88.628,75.336 L107.706,42.114 L107.706,42.114 L107.706,42.114 Z M103.234,64.114 L112.326,65.754 L110.362,50.974 L103.234,64.114 L103.234,64.114 L103.234,64.114 Z M139.5,68.02 C140.808,68.09 141.76,68.054 142.352,67.912 C143.414,67.672 144.026,67.112 144.186,66.226 C144.378,65.152 144.134,64.34 143.45,63.794 C142.768,63.248 141.694,62.844 140.23,62.58 C138.584,62.284 137.346,62.476 136.522,63.152 C135.922,63.662 135.454,64.406 135.11,65.386 L128.484,64.19 C129.042,61.924 130.028,60.152 131.442,58.88 C133.68,56.896 137.016,56.304 141.452,57.104 C144.34,57.624 146.8,58.658 148.84,60.2 C150.876,61.748 151.606,64.102 151.036,67.262 L148.864,79.306 C148.712,80.144 148.546,81.16 148.368,82.354 C148.25,83.262 148.278,83.898 148.446,84.258 C148.612,84.62 148.902,84.944 149.314,85.234 L149.132,86.246 L141.664,84.9 C141.55,84.332 141.496,83.808 141.5,83.328 C141.502,82.848 141.534,82.306 141.594,81.704 C140.454,82.56 139.198,83.234 137.824,83.736 C136.184,84.316 134.428,84.44 132.554,84.104 C130.166,83.672 128.312,82.638 126.996,80.998 C125.682,79.362 125.248,77.298 125.698,74.808 C126.28,71.58 127.958,69.468 130.726,68.474 C132.242,67.94 134.364,67.738 137.094,67.886 L139.5,68.02 L139.5,68.02 L139.5,68.02 Z M143.122,71.98 C142.636,72.174 142.148,72.316 141.672,72.402 C141.196,72.492 140.55,72.534 139.744,72.542 L138.128,72.548 C136.616,72.542 135.51,72.664 134.804,72.918 C133.608,73.348 132.894,74.224 132.656,75.542 C132.444,76.714 132.622,77.618 133.188,78.26 C133.754,78.9 134.51,79.306 135.458,79.476 C136.958,79.746 138.418,79.566 139.836,78.926 C141.258,78.286 142.198,76.822 142.66,74.534 L143.122,71.98 L143.122,71.98 L143.122,71.98 Z" id="Fill-17" fill="#0D4C75"></path>
                            <polygon id="Fill-19" stroke="#205081" stroke-width="2" points="176.07 33.032 160.596 30.242 163.386 14.768 176.07 33.032"></polygon>
                        </g>
                    </g>
                </g>
            </g>
        </g>
    </g>
</svg>
