<?xml version="1.0" encoding="UTF-8" standalone="no"?>
<svg width="191px" height="163px" viewBox="0 0 191 159" version="1.1" xmlns="http://www.w3.org/2000/svg" xmlns:xlink="http://www.w3.org/1999/xlink">
    <!-- Generator: Sketch 3.8.2 (29753) - http://www.bohemiancoding.com/sketch -->
    <title>ui-illustration</title>
    <desc>Created with Sketch.</desc>
    <defs></defs>
    <g id="design.tuva.co" stroke="none" stroke-width="1" fill="none" fill-rule="evenodd">
        <g id="ui-illustration" stroke="#0D4C75">
            <g id="Page-1">
                <g>
                    <g id="ui-illustration">
                        <g id="group">
                            <polygon id="Fill-1" fill="#FFFFFF" points="1.534 0.6 91.428 0.6 91.428 97.666 1.534 97.666"></polygon>
                            <polygon id="Fill-3" fill="#F0F1F1" points="15.766 51.84 76.766 51.84 76.766 63.338 15.766 63.338"></polygon>
                            <polygon id="Fill-5" fill="#F0F1F1" points="15.766 70.324 76.766 70.324 76.766 81.822 15.766 81.822"></polygon>
                            <path d="M59.576,27.092 C59.576,34.324 53.714,40.188 46.48,40.188 C39.248,40.188 33.386,34.324 33.386,27.092 C33.386,19.86 39.248,13.998 46.48,13.998 C53.714,13.998 59.576,19.86 59.576,27.092 L59.576,27.092 L59.576,27.092 Z" id="Fill-7" fill="#F0F1F1"></path>
                            <path d="M51.26,25.666 C51.26,28.306 49.12,30.446 46.48,30.446 C43.842,30.446 41.702,28.306 41.702,25.666 C41.702,23.028 43.842,20.888 46.48,20.888 C49.12,20.888 51.26,23.028 51.26,25.666 L51.26,25.666 L51.26,25.666 Z" id="Fill-9" fill="#F79232"></path>
                            <path d="M46.48,40.188 C48.892,40.188 51.142,39.524 53.082,38.388 C51.94,35.876 49.422,34.12 46.48,34.12 C43.54,34.12 41.022,35.876 39.88,38.388 C41.82,39.524 44.07,40.188 46.48,40.188 L46.48,40.188 L46.48,40.188 Z" id="Fill-11" fill="#F79232"></path>
                            <polygon id="Fill-13" fill="#F0F1F1" points="107.2 0.738 190.254 0.738 190.254 41.938 107.2 41.938"></polygon>
                            <polygon id="Fill-15" fill="#FFFFFF" points="107.2 56.466 190.254 56.466 190.254 97.666 107.2 97.666"></polygon>
                            <polygon id="Fill-17" points="107.2 18.108 140.4 26.454 159.188 16.944 177.574 21.698 190.254 14.144 190.254 41.938 107.2 41.938 107.2 18.108"></polygon>
                            <polygon id="Fill-19" points="155.66 112.676 190.236 112.676 190.236 129.548 155.66 129.548"></polygon>
                            <path d="M116.36,77.074 L181.096,77.058 M116.36,68.146 L181.094,68.13 M116.362,86.002 L169.136,85.986" id="Stroke-21"></path>
                            <polygon id="Fill-22" fill="#F0F1F1" points="0.946 112.676 146.894 112.676 146.894 129.548 0.946 129.548"></polygon>
                            <path d="M12.676,151.988 C12.676,155.326 9.97,158.032 6.632,158.032 C3.294,158.032 0.588,155.326 0.588,151.988 C0.588,148.65 3.294,145.944 6.632,145.944 C9.97,145.944 12.676,148.65 12.676,151.988 L12.676,151.988 L12.676,151.988 Z" id="Fill-24" fill="#FFFFFF"></path>
                            <path d="M32.444,151.988 C32.444,155.326 29.738,158.032 26.4,158.032 C23.062,158.032 20.356,155.326 20.356,151.988 C20.356,148.65 23.062,145.944 26.4,145.944 C29.738,145.944 32.444,148.65 32.444,151.988 L32.444,151.988 L32.444,151.988 Z" id="Fill-26" fill="#67AB49"></path>
                            <polygon id="Fill-28" fill="#FFFFFF" points="42.518 147.252 51.99 147.252 51.99 156.724 42.518 156.724"></polygon>
                            <polygon id="Fill-30" fill="#FFFFFF" points="60.236 147.252 69.708 147.252 69.708 156.724 60.236 156.724"></polygon>
                            <path d="M8.18,117.584 L8.18,124.542 M86.576,150.638 L190.236,150.638" id="Stroke-33"></path>
                            <path d="M148.794,150.188 C148.794,153.526 146.086,156.232 142.75,156.232 C139.412,156.232 136.706,153.526 136.706,150.188 C136.706,146.85 139.412,144.144 142.75,144.144 C146.086,144.144 148.794,146.85 148.794,150.188 L148.794,150.188 L148.794,150.188 Z" id="Fill-34" fill="#FFFFFF"></path>
                        </g>
                    </g>
                </g>
            </g>
        </g>
    </g>
</svg>
