<?xml version="1.0" encoding="UTF-8" standalone="no"?>
<svg width="190px" height="163px" viewBox="0 0 190 148" version="1.1" xmlns="http://www.w3.org/2000/svg" xmlns:xlink="http://www.w3.org/1999/xlink">
    <!-- Generator: Sketch 3.8.2 (29753) - http://www.bohemiancoding.com/sketch -->
    <title>product-illustration</title>
    <desc>Created with Sketch.</desc>
    <defs>
        <polygon id="path-1" points="1.05201869e-05 42.6223468 32.9765206 42.6223468 32.9765206 0.00946777126 1.05201869e-05 0.00946777126"></polygon>
    </defs>
    <g id="design.tuva.co" stroke="none" stroke-width="1" fill="none" fill-rule="evenodd">
        <g id="product-illustration" transform="translate(1.000000, 1.000000)">
            <g id="Page-1">
                <g>
                    <g id="product-illustration">
                        <g id="group">
                            <path d="M1.674,128.626 C0.752,128.626 0.004,127.878 0.004,126.954 L0.004,2.408 C0.004,1.484 0.752,0.736 1.674,0.736 L169.87,0.736 C170.794,0.736 171.542,1.484 171.542,2.408 L171.542,126.954 C171.542,127.878 170.794,128.626 169.87,128.626 L1.674,128.626 Z" id="Fill-1" stroke="#0D4C75" stroke-width="2" fill="#FFFFFF"></path>
                            <path d="M171.542,15.422 L0.004,15.422 L0.004,2.408 C0.004,1.484 0.752,0.736 1.674,0.736 L169.87,0.736 C170.794,0.736 171.542,1.484 171.542,2.408 L171.542,15.422 L171.542,15.422 L171.542,15.422 Z" id="Fill-3" stroke="#0D4C75" stroke-width="2" fill="#F0F1F1"></path>
                            <path d="M118.426,23.844 L118.426,115.146 M40.122,100.912 L131.424,100.912 M131.424,37.794 L40.122,37.794 M53.12,115.146 L53.12,23.844" id="Stroke-13" stroke="#0D4C75" stroke-width="2"></path>
                            <path d="M12.03,9.214 C12.03,10.108 11.306,10.832 10.412,10.832 C9.52,10.832 8.796,10.108 8.796,9.214 C8.796,8.322 9.52,7.598 10.412,7.598 C11.306,7.598 12.03,8.322 12.03,9.214 L12.03,9.214 L12.03,9.214 Z M17.164,7.598 C16.27,7.598 15.546,8.322 15.546,9.214 C15.546,10.108 16.27,10.832 17.164,10.832 C18.056,10.832 18.78,10.108 18.78,9.214 C18.78,8.322 18.056,7.598 17.164,7.598 L17.164,7.598 L17.164,7.598 Z M23.914,7.598 C23.02,7.598 22.296,8.322 22.296,9.214 C22.296,10.108 23.02,10.832 23.914,10.832 C24.806,10.832 25.53,10.108 25.53,9.214 C25.53,8.322 24.806,7.598 23.914,7.598 L23.914,7.598 L23.914,7.598 Z" id="Fill-14" fill="#0D4C75"></path>
                            <polygon id="Fill-15" stroke="#0D4C75" stroke-width="2" fill="#FFFFFF" points="182.604 84.17 172.788 74.354 187.438 69.52 182.604 84.17"></polygon>
                            <polygon id="Fill-17" stroke="#0D4C75" stroke-width="2" fill="#F3D45D" points="118.864 128.278 172.788 74.354 182.604 84.17 128.68 138.094"></polygon>
                            <path d="M118.898,145.316 L111.642,138.06 C110.934,137.354 110.934,136.206 111.642,135.5 L118.864,128.278 L128.68,138.094 L121.458,145.316 C120.75,146.022 119.604,146.022 118.898,145.316 L118.898,145.316 L118.898,145.316 Z" id="Fill-19" stroke="#0D4C75" stroke-width="2" fill="#C16449"></path>
                        </g>
                    </g>
                </g>
            </g>
            <ellipse id="Oval-1" fill="#0D4C75" cx="85.3062584" cy="68.5505899" rx="27.3062584" ry="26.5505899"></ellipse>
            <g id="Tuva-Logotyp-Svart-001" transform="translate(69.000000, 47.000000)">
                <path d="M10.4864703,23.3499938 C12.056316,24.1450261 13.2944068,25.4125545 14.001018,26.9443636 C15.213755,29.5735527 16.5114907,34.4582439 16.5114907,43.385528 C16.5114907,43.385528 16.1844897,42.7971722 16.1702282,42.3692556 C16.1572978,41.983728 16.1074141,32.5993995 12.8526163,26.6371019 C12.2380395,25.5113637 11.2627411,24.5938413 10.0770693,23.9852974 C7.98430094,22.9112431 4.61376296,20.9850853 3.70045467,18.1525351 C3.1227043,16.3607081 3.51435757,16.7471829 3.51435757,16.7471829 C3.51435757,16.7471829 3.90214438,20.0154645 10.4864703,23.3499938 Z" id="Fill-1" fill="#FFFFFF"></path>
                <path d="M7.12220738,25.2940309 C7.32966509,25.7435565 7.48375298,25.7308871 8.42197141,26.2505679 C8.47863721,26.2869775 7.8390235,25.2099039 7.8168389,24.2640826 C7.82647336,24.2434801 8.60699097,26.2624676 9.7074739,26.9074803 C10.3709836,27.2963233 10.5826247,27.4094595 10.5826247,27.4094595 C10.5826247,27.4094595 9.62380627,26.7863517 9.67045731,25.1685805 C9.67819023,25.1171926 10.3867664,26.8071319 11.8750995,27.8395667 C12.4010647,28.2407829 12.7346577,28.5039387 14.6254194,29.2540953 C15.2699137,29.5097915 14.6405683,29.8966807 14.6405683,29.8966807 C14.6405683,29.8966807 13.6472687,29.5815451 12.5191501,29.0020696 C11.5887914,28.524186 11.0483745,27.9296731 10.7147181,27.9400927 C9.9137273,27.9650763 7.93860066,27.0171828 6.92520813,26.1421678 C6.45540169,25.7364522 7.12220738,25.2940309 7.12220738,25.2940309" id="Fill-2" fill="#FFFFFF"></path>
                <path d="M15.8092531,34.8007312 C14.8788943,34.3228475 14.3385409,33.7282754 14.0048211,33.7386951 C13.2038936,33.7637378 11.3735374,32.8932814 10.3601448,32.0182664 C9.89033839,31.6125507 10.2958095,30.9769512 10.2958095,30.9769512 C10.5032672,31.4264769 10.7739193,31.5295486 11.7120744,32.0491702 C11.7688036,32.085639 11.1291265,31.0085062 11.1069419,30.0626849 C11.1165763,30.0420824 11.8971573,32.0611291 12.9976402,32.7060827 C13.6611499,33.0949848 13.8727276,33.2080618 13.8727276,33.2080618 C13.8727276,33.2080618 12.9139092,32.5850133 12.9606237,30.9671828 C12.9682932,30.9157949 13.6768693,32.6057934 15.1652024,33.6382282 C15.361758,33.7881885 15.5315019,33.9188487 15.7657079,34.0628887 L15.8092531,34.8007312" id="Fill-3" fill="#FFFFFF"></path>
                <path d="M13.4482412,36.42537 C13.6640656,36.6540697 14.183629,36.8551219 14.183629,36.8551219 C14.183629,36.8551219 13.2248105,36.2320141 13.2714616,34.6142429 C13.2791945,34.562855 13.9877706,36.2528535 15.4760404,37.2852291 C15.6726593,37.4351893 15.8424032,37.5659088 16.0766092,37.7099488 C16.0766092,37.7099488 16.3030189,38.481596 16.1228799,38.4052246 C14.4983967,37.7166979 13.4766375,36.9666005 13.4766375,36.9666005 C13.4766375,36.9666005 13.3299656,36.300038 13.4482412,36.42537" id="Fill-4" fill="#FFFFFF"></path>
                <path d="M29.4612122,16.7471829 C29.4612122,16.7471829 29.0734254,20.0154645 22.4890995,23.3499938 C20.9192538,24.1450261 19.681163,25.4125545 18.9745518,26.9443636 C17.7618148,29.5735527 16.4640791,34.4582439 16.4640791,43.385528 C16.4640791,43.385528 16.7910801,42.7971722 16.805405,42.3692556 C16.8182721,41.983728 16.8681557,32.5993995 20.1229535,26.6371019 C20.7375303,25.5113637 21.7128287,24.5938413 22.8985005,23.9852974 C24.9912689,22.9112431 28.3618069,20.9850853 29.2751151,18.1525351 C29.8528655,16.3607081 29.4612122,16.7471829 29.4612122,16.7471829" id="Fill-5" fill="#FFFFFF"></path>
                <path d="M25.8483551,25.2940309 C25.6408973,25.7435565 25.4970144,25.7486479 24.5588593,26.2682695 C24.5021301,26.3047383 25.1418072,25.2276055 25.1639918,24.2817842 C25.1543574,24.2611816 24.3737764,26.2802284 23.2732934,26.9251819 C22.6097838,27.314084 22.3981427,27.4271611 22.3981427,27.4271611 C22.3981427,27.4271611 23.3570245,26.8041125 23.31031,25.1862821 C23.3026405,25.1348942 22.5940644,26.8248927 21.1057313,27.8573274 C20.5797661,28.2585437 20.2461097,28.5216402 18.3554113,29.2717969 C17.710917,29.5274931 18.3402624,29.9143823 18.3402624,29.9143823 C18.3402624,29.9143823 19.333562,29.5992467 20.4616806,29.0198304 C21.3920394,28.5419467 21.9323928,27.9473747 22.2661126,27.9577943 C23.0670401,27.982837 25.0422301,27.0349436 26.0555592,26.1598694 C26.525429,25.7541538 25.8483551,25.2940309 25.8483551,25.2940309" id="Fill-6" fill="#FFFFFF"></path>
                <path d="M17.1715143,34.8007312 C18.1019364,34.3228475 18.6422899,33.7282754 18.9759463,33.7386951 C19.7769371,33.7637378 21.6072934,32.8932814 22.6206225,32.0182664 C23.0904923,31.6125507 22.6807111,30.9769512 22.6807111,30.9769512 C22.4732534,31.4264769 22.2069114,31.5295486 21.268693,32.0491702 C21.2120272,32.085639 21.8516409,31.0085062 21.8738255,30.0626849 C21.864191,30.0420824 21.0836734,32.0611291 19.9831905,32.7060827 C19.3196808,33.0949848 19.1080397,33.2080618 19.1080397,33.2080618 C19.1080397,33.2080618 20.0668581,32.5850133 20.0202071,30.9671828 C20.0124742,30.9157949 19.303898,32.6057934 17.8156283,33.6382282 C17.6190094,33.7881885 17.4492655,33.9188487 17.2150595,34.0628887 L17.1715143,34.8007312" id="Fill-7" fill="#FFFFFF"></path>
                <g id="Group-11" transform="translate(0.000000, 2.190498)">
                    <mask id="mask-2" fill="white">
                        <use xlink:href="#path-1"></use>
                    </mask>
                    <g id="Clip-9"></g>
                    <path d="M19.5237791,34.243516 C19.3079546,34.4722157 18.7971384,34.6823851 18.7971384,34.6823851 C18.7971384,34.6823851 19.7560202,34.0592773 19.7093058,32.4414469 C19.7016362,32.390059 18.9930601,34.0800575 17.504727,35.1124923 C17.308108,35.2624525 17.1384275,35.3931128 16.9042215,35.5371528 C16.9042215,35.5371528 16.6778119,36.3088 16.8578874,36.2324878 C18.482434,35.5439019 19.5041933,34.7938045 19.5041933,34.7938045 C19.5041933,34.7938045 19.6420547,34.118184 19.5237791,34.243516" id="Fill-8" fill="#FFFFFF" mask="url(#mask-2)"></path>
                    <path d="M16.488292,40.593354 C16.488292,40.0584582 20.4815834,32.2485647 21.3405711,30.9381143 C22.1996222,29.6276639 26.7306049,22.3913847 28.4640462,17.0344933 C29.012703,15.3390482 29.5514719,13.2841838 29.7550631,11.5056774 C29.989903,9.45400998 29.56155,8.03977737 29.4597544,7.74932923 C29.4515144,7.72576658 29.4248295,7.72150399 29.3996024,7.72902273 C29.1836512,7.79367201 28.3467847,7.9169319 28.2506303,7.8720563 C28.2506303,7.8720563 29.0772919,7.51879416 29.3592265,7.25315193 C32.1172793,4.95632641 32.2521617,1.88258467 32.2853752,1.25728641 C32.3186521,0.632047358 31.9336542,0.738967321 31.765495,0.985072685 C28.6751168,4.49229613 25.8012603,5.08722344 23.4724478,5.47843447 C19.5756911,6.13315643 17.8262769,7.32822087 17.8129661,7.33165463 C17.9104516,7.28766707 18.3721448,6.28708329 22.7946765,4.96242428 C22.9959859,4.90209679 23.327614,4.8125232 23.5339942,4.76948288 C26.1645173,4.22061523 29.8065948,2.6734727 31.3000621,0.590487106 C31.4213801,0.421226766 31.5845954,0.283343823 31.7692346,0.174943794 C31.9777699,0.0525719421 32.1461193,-0.0121365407 32.3702472,0.0159847121 C33.0087199,0.0962042859 33.0144879,1.21945593 32.9500258,2.16219873 C32.8861976,3.09635714 32.2593875,5.61181801 30.5843235,7.17630691 C30.4231365,7.29039039 31.0917803,8.71687794 30.7905135,11.5310753 C30.6764846,12.5957755 30.4806263,14.0586135 30.1249121,15.4457905 C28.9471,20.0394416 24.0185059,27.8941515 21.9347381,31.2762798 C19.6631618,34.9632424 16.488292,41.235229 16.488292,42.625899 M16.488292,42.625899 C16.488292,41.235229 13.3133588,34.9632424 11.0417825,31.2762798 C8.95807811,27.8941515 4.02948398,20.0394416 2.85160849,15.4457905 C2.49595766,14.0586135 2.30003595,12.5957755 2.1860071,11.5310753 C1.88474024,8.71687794 2.55338408,7.29039039 2.39219712,7.17630691 C0.717133043,5.61181801 0.0903230145,3.09635714 0.0264947509,2.16219873 C-0.0379039738,1.21945593 -0.0321993624,0.0962042859 0.606336812,0.0159847121 C0.830464657,-0.0121365407 0.998814079,0.0525719421 1.20728593,0.174943794 C1.39192519,0.283343823 1.55514046,0.421226766 1.67645853,0.590487106 C3.16998919,2.6734727 6.81200329,4.22061523 9.44258978,4.76948288 C9.64890656,4.8125232 9.98053464,4.90209679 10.1819074,4.96242428 C14.6043757,6.28708329 15.066069,7.28766707 15.1635544,7.33165463 C15.1503071,7.32822087 13.4008295,6.13315643 9.50407281,5.47843447 C7.17526027,5.08722344 4.3014038,4.49229613 1.21102562,0.985072685 C1.04286636,0.738967321 0.657931853,0.632047358 0.691145368,1.25728641 C0.724358884,1.88258467 0.859241252,4.95632641 3.6173575,7.25315193 C3.89922869,7.51879416 4.72589027,7.8720563 4.72589027,7.8720563 C4.62973588,7.9169319 3.79286938,7.79367201 3.57691814,7.72902273 C3.55169108,7.72150399 3.52500618,7.72576658 3.51676618,7.74932923 C3.41497056,8.03977737 2.98661763,9.45400998 3.22145746,11.5056774 C3.42504871,13.2841838 3.96381757,15.3390482 4.51247442,17.0344933 C6.24591568,22.3913847 10.7769618,29.6276639 11.6359495,30.9381143 C12.4949372,32.2485647 16.488292,40.0584582 16.488292,40.593354" id="Fill-10" fill="#FFFFFF" mask="url(#mask-2)"></path>
                </g>
                <path d="M10.5570807,15.9850081 C9.5168765,15.9850081 8.67373493,15.1974947 8.67373493,14.2259794 C8.67373493,13.2544641 9.5168765,12.4668914 10.5570807,12.4668914 C11.5972849,12.4668914 12.4404265,13.2544641 12.4404265,14.2259794 C12.4404265,15.1974947 11.5972849,15.9850081 10.5570807,15.9850081 L10.5570807,15.9850081 Z M10.4898297,9.37088948 C7.57122369,9.3759217 5.35041845,11.4815227 5.35796122,14.2363398 C5.36512367,16.8857171 7.65165871,19.0525336 10.4699269,19.0808917 C13.3131053,19.1094273 15.7714759,16.8198837 15.7562002,14.1576595 C15.7407977,11.4820555 13.4125556,9.36573885 10.4898297,9.37088948 L10.4898297,9.37088948 Z" id="Fill-12" fill="#FFFFFF"></path>
                <path d="M22.2915932,15.9850081 C21.2515158,15.9850081 20.4083742,15.1974947 20.4083742,14.2259794 C20.4083742,13.2544641 21.2515158,12.4668914 22.2915932,12.4668914 C23.3317974,12.4668914 24.1750024,13.2544641 24.1750024,14.2259794 C24.1750024,15.1974947 23.3317974,15.9850081 22.2915932,15.9850081 L22.2915932,15.9850081 Z M22.2244056,9.37088948 C19.305863,9.3759217 17.084931,11.4815227 17.0924737,14.2363398 C17.0997629,16.8857171 19.3862346,19.0525336 22.2044394,19.0808917 C25.0476811,19.1094273 27.5059884,16.8198837 27.4907127,14.1576595 C27.4753736,11.4820555 25.1471315,9.36573885 22.2244056,9.37088948 L22.2244056,9.37088948 Z" id="Fill-13" fill="#FFFFFF"></path>
                <path d="M14.5129752,16.8890324 L16.2661924,20.9331646 L16.4472822,20.928606 L18.2958298,16.7042018 L18.2958298,14.8342865 L17.5625337,15.2256751 C17.5625337,15.2256751 16.5033775,16.0845278 15.2346719,15.2256751 L14.5944878,14.8778004 L14.5129752,16.8890324" id="Fill-14" fill="#FFFFFF"></path>
                <path d="M16.4529868,0.0390145381 C21.4190412,0.0390145381 25.7861748,2.31085655 28.306789,5.7463264 C27.8944724,5.82802604 27.5206936,5.98728113 27.2106163,6.20337076 C24.8861773,3.13335879 20.9360508,1.11277277 16.4529868,1.11277277 C11.8678736,1.11277277 7.44420101,3.01524953 5.14315091,6.20354837 C4.87059725,5.93305152 4.5108898,5.7417678 4.10617931,5.6698958 C6.61075728,2.159357 11.4224069,0.0390145381 16.4529868,0.0390145381" id="Fill-15" fill="#FFFFFF"></path>
            </g>
        </g>
    </g>
</svg>
