<?xml version="1.0" encoding="UTF-8" standalone="no"?>
<svg width="190px" height="163px" viewBox="0 0 190 150" version="1.1" xmlns="http://www.w3.org/2000/svg" xmlns:xlink="http://www.w3.org/1999/xlink">
    <!-- Generator: Sketch 3.8.2 (29753) - http://www.bohemiancoding.com/sketch -->
    <title>users-illustration</title>
    <desc>Created with Sketch.</desc>
    <defs></defs>
    <g id="design.tuva.co" stroke="none" stroke-width="1" fill="none" fill-rule="evenodd">
        <g id="users-illustration" transform="translate(1.000000, 1.000000)">
            <g id="Page-1">
                <g>
                    <g id="users-illustration">
                        <g id="group">
                            <path d="M170.654,103.39 L16.926,103.39 C15.82,103.39 14.926,102.494 14.926,101.39 L14.926,4.48 C14.926,2.27 16.716,0.48 18.924,0.48 L168.654,0.48 C170.864,0.48 172.654,2.27 172.654,4.48 L172.654,101.39 C172.654,102.494 171.758,103.39 170.654,103.39 L170.654,103.39 L170.654,103.39 Z" id="Fill-1" stroke="#205081" stroke-width="2" fill="#ECF2F9"></path>
                            <polygon id="Fill-3" stroke="#205081" stroke-width="2" fill="#59AFE1" points="23.874 9.882 163.706 9.882 163.706 93.712 23.874 93.712"></polygon>
                            <path d="M173.806,106.678 C173.118,104.602 171.178,103.2 168.99,103.2 L18.59,103.2 C16.402,103.2 14.46,104.602 13.772,106.678 L0.666,141.842 L186.912,141.842 L173.806,106.678 L173.806,106.678 L173.806,106.678 Z" id="Fill-5" stroke="#205081" stroke-width="2" fill="#ECF2F9"></path>
                            <path d="M0.668,141.842 C-0.19,144.43 1.736,147.1 4.464,147.1 L183.116,147.1 C185.842,147.1 187.77,144.43 186.912,141.842 L0.668,141.842 L0.668,141.842 L0.668,141.842 Z" id="Fill-7" stroke="#205081" stroke-width="2" fill="#ECF2F9"></path>
                            <path d="M116.206,135.1 L71.374,135.1 C70.066,135.1 69.11,133.864 69.438,132.598 L72.402,121.168 C72.63,120.286 73.426,119.672 74.338,119.672 L113.242,119.672 C114.154,119.672 114.95,120.286 115.178,121.168 L118.14,132.598 C118.47,133.864 117.514,135.1 116.206,135.1 L116.206,135.1 L116.206,135.1 Z" id="Fill-9" stroke="#205081" stroke-width="2" fill="#FFFFFF"></path>
                            <path d="M95.724,4.99 C95.724,6.058 94.858,6.924 93.79,6.924 C92.722,6.924 91.856,6.058 91.856,4.99 C91.856,3.92 92.722,3.054 93.79,3.054 C94.858,3.054 95.724,3.92 95.724,4.99" id="Fill-11" fill="#59AFE1"></path>
                            <path d="M144.206,85.93 L43.374,85.93 C42.822,85.93 42.374,85.482 42.374,84.93 L42.374,18.266 C42.374,17.712 42.822,17.264 43.374,17.264 L144.206,17.264 C144.758,17.264 145.208,17.712 145.208,18.266 L145.208,84.93 C145.208,85.482 144.758,85.93 144.206,85.93 L144.206,85.93 L144.206,85.93 Z" id="Fill-12" stroke="#205081" stroke-width="2" fill="#FFFFFF"></path>
                            <path d="M145.208,26.066 L42.374,26.066 L42.374,18.266 C42.374,17.712 42.822,17.264 43.374,17.264 L144.206,17.264 C144.758,17.264 145.208,17.712 145.208,18.266 L145.208,26.066 L145.208,26.066 L145.208,26.066 Z" id="Stroke-14" stroke="#1F5081" stroke-width="2"></path>
                            <path d="M49.262,21.812 C49.262,22.346 48.828,22.78 48.292,22.78 C47.758,22.78 47.324,22.346 47.324,21.812 C47.324,21.276 47.758,20.842 48.292,20.842 C48.828,20.842 49.262,21.276 49.262,21.812 L49.262,21.812 L49.262,21.812 Z M52.34,20.842 C51.804,20.842 51.37,21.276 51.37,21.812 C51.37,22.346 51.804,22.78 52.34,22.78 C52.874,22.78 53.308,22.346 53.308,21.812 C53.308,21.276 52.874,20.842 52.34,20.842 L52.34,20.842 L52.34,20.842 Z M56.386,20.842 C55.85,20.842 55.416,21.276 55.416,21.812 C55.416,22.346 55.85,22.78 56.386,22.78 C56.922,22.78 57.354,22.346 57.354,21.812 C57.354,21.276 56.922,20.842 56.386,20.842 L56.386,20.842 L56.386,20.842 Z" id="Fill-15" fill="#1F5081"></path>
                            <path d="M110.11,55.598 C110.11,64.61 102.804,71.918 93.79,71.918 C84.776,71.918 77.47,64.61 77.47,55.598 C77.47,46.584 84.776,39.276 93.79,39.276 C102.804,39.276 110.11,46.584 110.11,55.598 L110.11,55.598 L110.11,55.598 Z" id="Fill-16" stroke="#205081" stroke-width="2" fill="#67AB49"></path>
                            <polyline id="Stroke-18" stroke="#1F5081" stroke-width="2" points="87.914 54.772 92.248 59.106 100.012 51.34"></polyline>
                        </g>
                    </g>
                </g>
            </g>
        </g>
    </g>
</svg>
