<?xml version="1.0" encoding="UTF-8" standalone="no"?>
<svg width="70px" height="70px" viewBox="0 0 370 370" version="1.1" xmlns="http://www.w3.org/2000/svg" xmlns:xlink="http://www.w3.org/1999/xlink">
    <!-- Generator: Sketch 3.8.2 (29753) - http://www.bohemiancoding.com/sketch -->
    <title>tuva_owl_blue</title>
    <desc>Created with Sketch.</desc>
    <defs>
        <polygon id="path-1" points="6.78432422e-05 270.823004 212.661057 270.823004 212.661057 0.0601583545 6.78432422e-05 0.0601583545"></polygon>
    </defs>
    <g id="Page-1" stroke="none" stroke-width="1" fill="none" fill-rule="evenodd">
        <g id="tuva_owl_blue">
            <circle id="Oval-1" fill="#0D4C75" cx="185" cy="185" r="185"></circle>
            <path d="M145.625808,202.366196 C155.749528,207.417842 163.733806,215.471736 168.290644,225.204873 C176.111419,241.910779 184.480339,272.948177 184.480339,329.672268 C184.480339,329.672268 182.371554,325.933847 182.279583,323.214858 C182.196197,320.76521 181.874504,261.137053 160.88476,223.252528 C156.921438,216.099572 150.631873,210.269621 142.985638,206.402924 C129.489661,199.578368 107.753524,187.339533 101.863725,169.341469 C98.1378917,157.956174 100.66361,160.411841 100.66361,160.411841 C100.66361,160.411841 103.164394,181.178549 145.625808,202.366196 Z" id="Fill-1" fill="#FFFFFF"></path>
            <path d="M123.930138,214.718635 C125.268005,217.574928 126.261696,217.494426 132.312138,220.796485 C132.677568,221.027832 128.552787,214.184091 128.409722,208.174329 C128.471853,208.04342 133.505304,220.872096 140.602168,224.970516 C144.881051,227.44123 146.245895,228.160099 146.245895,228.160099 C146.245895,228.160099 140.062606,224.200864 140.363453,213.921522 C140.413321,213.595002 144.982831,224.332901 154.580887,230.893006 C157.972765,233.44234 160.12406,235.114436 172.317324,239.880941 C176.473579,241.505639 172.415017,243.963939 172.415017,243.963939 C172.415017,243.963939 166.009364,241.961562 158.734282,238.279567 C152.734526,235.243087 149.249452,231.465544 147.097747,231.53175 C141.932267,231.690496 129.194947,225.667568 122.659717,220.10771 C119.63,217.529787 123.930138,214.718635 123.930138,214.718635" id="Fill-2" fill="#FFFFFF"></path>
            <path d="M179.951704,275.124346 C173.951948,272.087866 170.467283,268.309946 168.31517,268.376153 C163.150099,268.535275 151.346382,263.004382 144.811153,257.444525 C141.781436,254.866601 144.396263,250.827993 144.396263,250.827993 C145.734129,253.684285 147.479528,254.339205 153.529561,257.640888 C153.8954,257.872611 149.77021,251.028494 149.627144,245.018732 C149.689276,244.887823 154.723135,257.716875 161.819999,261.814919 C166.098882,264.286009 167.463317,265.004502 167.463317,265.004502 C167.463317,265.004502 161.280029,261.045642 161.581284,250.765924 C161.630744,250.439405 166.200254,261.177679 175.79831,267.737785 C177.06587,268.690635 178.160525,269.520852 179.670887,270.436084 L179.951704,275.124346" id="Fill-3" fill="#FFFFFF"></path>
            <path d="M164.725862,285.447324 C166.117685,286.900486 169.468277,288.177974 169.468277,288.177974 C169.468277,288.177974 163.284989,284.218738 163.585835,273.939396 C163.635704,273.612877 168.205214,284.351152 177.802861,290.910881 C179.07083,291.863731 180.165485,292.694324 181.675847,293.609556 C181.675847,293.609556 183.135932,298.512613 181.974241,298.027348 C171.498172,293.65244 164.908986,288.88631 164.908986,288.88631 C164.908986,288.88631 163.963119,284.650963 164.725862,285.447324" id="Fill-4" fill="#FFFFFF"></path>
            <path d="M267.991316,160.411841 C267.991316,160.411841 265.490532,181.178549 223.029118,202.366196 C212.905398,207.417842 204.92112,215.471736 200.364282,225.204873 C192.543507,241.910779 184.174587,272.948177 184.174587,329.672268 C184.174587,329.672268 186.283372,325.933847 186.375751,323.214858 C186.458729,320.76521 186.780422,261.137053 207.770166,223.252528 C211.733488,216.099572 218.023054,210.269621 225.669288,206.402924 C239.165265,199.578368 260.901402,187.339533 266.791202,169.341469 C270.517034,157.956174 267.991316,160.411841 267.991316,160.411841" id="Fill-5" fill="#FFFFFF"></path>
            <path d="M244.692496,214.718635 C243.35463,217.574928 242.426748,217.607279 236.376715,220.908961 C236.010876,221.140685 240.136066,214.296568 240.279131,208.286805 C240.217,208.155897 235.18314,220.984949 228.086277,225.082993 C223.807394,227.554082 222.442549,228.272575 222.442549,228.272575 C222.442549,228.272575 228.626247,224.313716 228.324992,214.033998 C228.275532,213.707478 223.706022,224.445753 214.107966,231.005859 C210.716088,233.555193 208.564384,235.226912 196.371529,239.993418 C192.215274,241.618115 196.273836,244.076415 196.273836,244.076415 C196.273836,244.076415 202.679489,242.074038 209.954571,238.392419 C215.954327,235.35594 219.438993,231.57802 221.591106,231.644227 C226.756177,231.803348 239.493906,225.78042 246.028727,220.220186 C249.058853,217.642263 244.692496,214.718635 244.692496,214.718635" id="Fill-6" fill="#FFFFFF"></path>
            <path d="M188.73674,275.124346 C194.736905,272.087866 198.22157,268.309946 200.373274,268.376153 C205.538754,268.535275 217.342471,263.004382 223.877291,257.444525 C226.907417,254.866601 224.264794,250.827993 224.264794,250.827993 C222.926928,253.684285 221.209325,254.339205 215.158883,257.640888 C214.793453,257.872611 218.918234,251.028494 219.0613,245.018732 C218.999169,244.887823 213.965718,257.716875 206.868854,261.814919 C202.589971,264.286009 201.225127,265.004502 201.225127,265.004502 C201.225127,265.004502 207.408415,261.045642 207.107569,250.765924 C207.057701,250.439405 202.48819,261.177679 192.890543,267.737785 C191.622574,268.690635 190.527919,269.520852 189.017557,270.436084 L188.73674,275.124346" id="Fill-7" fill="#FFFFFF"></path>
            <g id="Group-11" transform="translate(78.000000, 67.918453)">
                <mask id="mask-2" fill="white">
                    <use xlink:href="#path-1"></use>
                </mask>
                <g id="Clip-9"></g>
                <path d="M125.906173,217.583792 C124.514351,219.036954 121.220167,220.372373 121.220167,220.372373 C121.220167,220.372373 127.403864,216.413137 127.102609,206.133419 C127.053149,205.8069 122.483639,216.545175 112.885583,223.10528 C111.617614,224.05813 110.523368,224.888347 109.013006,225.803579 C109.013006,225.803579 107.552921,230.706636 108.714203,230.221748 C119.190681,225.846463 125.779867,221.080333 125.779867,221.080333 C125.779867,221.080333 126.668916,216.787431 125.906173,217.583792" id="Fill-8" fill="#FFFFFF" mask="url(#mask-2)"></path>
                <path d="M106.330733,257.930755 C106.330733,254.532019 132.082921,204.907843 137.622415,196.581223 C143.162318,188.254602 172.382004,142.27518 183.560729,108.237415 C187.098942,97.4645323 190.573388,84.4078947 191.88632,73.1072393 C193.40077,60.0709152 190.638381,51.0848609 189.981915,49.2393492 C189.928776,49.0896318 189.756689,49.0625473 189.594003,49.1103214 C188.201363,49.5211039 182.804526,50.304299 182.184439,50.0191588 C182.184439,50.0191588 187.515467,47.7745261 189.333624,46.0866315 C207.119928,31.4925692 207.989766,11.96197 208.203956,7.98881592 C208.418554,4.01603799 205.935755,4.69540897 204.851319,6.25916599 C184.921894,28.5441141 166.388788,32.3242908 151.370596,34.8100513 C126.240946,38.9701641 114.959214,46.5636207 114.873375,46.5854388 C115.502045,46.3059412 118.479442,39.9482175 146.999742,31.5313151 C148.297959,31.1479934 150.436583,30.5788415 151.7675,30.3053627 C168.731383,26.8178498 192.218641,16.987284 201.849806,3.75196355 C202.63217,2.67648092 203.684723,1.80037072 204.875436,1.11159538 C206.220251,0.334042875 207.305914,-0.0771157538 208.751283,0.10156709 C212.868707,0.611283414 212.905904,7.74844047 212.490196,13.7386418 C212.078577,19.6742978 208.036365,35.6575722 197.234106,45.5983571 C196.194634,46.3232452 200.506626,55.3871676 198.563798,73.2686181 C197.828441,80.0337387 196.565378,89.3286322 194.271425,98.1427747 C186.675877,127.330899 154.892049,177.239839 141.454117,198.729931 C126.805033,222.156944 106.330733,262.009237 106.330733,270.845574 M106.330733,270.845574 C106.330733,262.009237 85.8560245,222.156944 71.2069407,198.729931 C57.7694169,177.239839 25.9855894,127.330899 18.389632,98.1427747 C16.0960885,89.3286322 14.8326163,80.0337387 14.0972599,73.2686181 C12.1544312,55.3871676 16.4664237,46.3232452 15.426951,45.5983571 C4.62469261,35.6575722 0.58248073,19.6742978 0.170861014,13.7386418 C-0.244437527,7.74844047 -0.207649271,0.611283414 3.91018292,0.10156709 C5.35555264,-0.0771157538 6.44121497,0.334042875 7.78562137,1.11159538 C8.97633461,1.80037072 10.0288875,2.67648092 10.8112511,3.75196355 C20.4428254,16.987284 43.9296747,26.8178498 60.8939661,30.3053627 C62.2244747,30.5788415 64.3630987,31.1479934 65.6617242,31.5313151 C94.1816157,39.9482175 97.159012,46.3059412 97.7876824,46.5854388 C97.7022519,46.5636207 86.4201111,38.9701641 61.2904618,34.8100513 C46.2722692,32.3242908 27.739163,28.5441141 7.80973812,6.25916599 C6.72530207,4.69540897 4.24291226,4.01603799 4.45710167,7.98881592 C4.67129107,11.96197 5.54112896,31.4925692 23.3278423,46.0866315 C25.1455909,47.7745261 30.476618,50.0191588 30.476618,50.0191588 C29.8565315,50.304299 24.4596943,49.5211039 23.0670544,49.1103214 C22.9043686,49.0625473 22.7322813,49.0896318 22.6791427,49.2393492 C22.0226767,51.0848609 19.2602874,60.0709152 20.7747373,73.1072393 C22.0876693,84.4078947 25.5621157,97.4645323 29.1003285,108.237415 C40.2790534,142.27518 69.4991481,188.254602 75.038642,196.581223 C80.578136,204.907843 106.330733,254.532019 106.330733,257.930755" id="Fill-10" fill="#FFFFFF" mask="url(#mask-2)"></path>
            </g>
            <path d="M146.081165,155.568971 C139.373031,155.568971 133.935727,150.565099 133.935727,144.392077 C133.935727,138.219055 139.373031,133.214807 146.081165,133.214807 C152.789299,133.214807 158.226604,138.219055 158.226604,144.392077 C158.226604,150.565099 152.789299,155.568971 146.081165,155.568971 L146.081165,155.568971 Z M145.647473,113.542766 C126.825783,113.574741 112.504115,126.95376 112.552757,144.457908 C112.598947,161.292089 127.344497,175.060072 145.519122,175.24026 C163.854389,175.421576 179.708084,160.873783 179.609573,143.957972 C179.510245,126.957146 164.495731,113.510039 145.647473,113.542766 L145.647473,113.542766 Z" id="Fill-12" fill="#FFFFFF"></path>
            <path d="M221.755427,155.568971 C215.04811,155.568971 209.610806,150.565099 209.610806,144.392077 C209.610806,138.219055 215.04811,133.214807 221.755427,133.214807 C228.463561,133.214807 233.901274,138.219055 233.901274,144.392077 C233.901274,150.565099 228.463561,155.568971 221.755427,155.568971 L221.755427,155.568971 Z M221.322143,113.542766 C202.500862,113.574741 188.178376,126.95376 188.227018,144.457908 C188.274025,161.292089 203.019167,175.060072 221.193384,175.24026 C239.52906,175.421576 255.382346,160.873783 255.283835,143.957972 C255.184915,126.957146 240.170402,113.510039 221.322143,113.542766 L221.322143,113.542766 Z" id="Fill-13" fill="#FFFFFF"></path>
            <path d="M171.592186,161.313154 L182.898444,187.009628 L184.066266,186.980663 L195.987297,160.138738 L195.987297,148.257269 L191.258371,150.744158 C191.258371,150.744158 184.428018,156.20132 176.246309,150.744158 L172.117849,148.533757 L171.592186,161.313154" id="Fill-14" fill="#FFFFFF"></path>
            <path d="M184.103055,54.2478989 C216.128458,54.2478989 244.291504,68.6832157 260.546599,90.5122405 C257.887626,91.0313611 255.477178,92.0432703 253.477531,93.4163069 C238.487543,73.9094068 213.013719,61.0705742 184.103055,61.0705742 C154.534289,61.0705742 126.006631,73.1589388 111.167475,93.4174354 C109.409813,91.6986945 107.09011,90.483275 104.480187,90.0265993 C120.631867,67.7205854 151.661535,54.2478989 184.103055,54.2478989" id="Fill-15" fill="#FFFFFF"></path>
        </g>
    </g>
</svg>
